
<!-- Generator: visioncortex VTracer 0.6.4 -->
<svg version="1.1" xmlns="http://www.w3.org/2000/svg" viewBox="0 0 460 543" preserveAspectRatio="xMidYMid meet">
<path d="M0 0 C3.872 1.951 7.702 3.953 11.492 6.059 C40.015 21.901 74.21 37.713 107.328 29.039 C109.295 28.44 111.247 27.788 113.184 27.098 C115.961 26.238 118.053 25.946 120.938 26 C121.707 26.006 122.477 26.013 123.27 26.02 C125.125 26.188 125.125 26.188 126.125 27.188 C126.697 31.261 127.011 33.789 124.773 37.32 C122.982 39.396 121.118 41.304 119.125 43.188 C118.197 44.074 117.269 44.961 116.312 45.875 C107.661 52.152 99.732 54.164 89.125 55.188 C88.939 56.363 88.939 56.363 88.75 57.562 C88.125 60.187 88.125 60.187 86.125 62.188 C77.083 64.704 64.625 64.437 56.125 60.188 C56.063 61.404 56.001 62.621 55.938 63.875 C55.397 68.361 53.669 70.335 50.125 73.188 C43.75 76.375 34.665 73.903 28.125 72.188 C27.898 72.909 27.671 73.631 27.438 74.375 C25.856 77.764 23.924 79.73 21.125 82.188 C12.829 84.953 3.485 82.822 -4.875 81.188 C-5.326 81.985 -5.777 82.783 -6.242 83.605 C-8.261 86.798 -9.225 87.315 -12.875 88.188 C-21.232 89.283 -28.005 86.228 -35.578 83.055 C-37.778 82.07 -37.778 82.07 -39.875 82.188 C-39.875 82.847 -39.875 83.507 -39.875 84.188 C-41.082 84.59 -41.082 84.59 -42.312 85 C-43.581 85.588 -43.581 85.588 -44.875 86.188 C-45.37 87.673 -45.37 87.673 -45.875 89.188 C-56.774 94.118 -69.303 89.123 -79.875 85.188 C-80.535 84.858 -81.195 84.528 -81.875 84.188 C-81.924 78.261 -81.961 72.335 -81.985 66.408 C-81.995 64.391 -82.009 62.375 -82.026 60.358 C-82.05 57.461 -82.061 54.565 -82.07 51.668 C-82.081 50.765 -82.091 49.862 -82.102 48.931 C-82.102 48.09 -82.102 47.25 -82.102 46.384 C-82.109 45.274 -82.109 45.274 -82.116 44.143 C-81.875 42.188 -81.875 42.188 -79.875 39.188 C-77.23 38.527 -77.23 38.527 -74.062 38.125 C-68.244 37.391 -68.244 37.391 -62.875 35.188 C-61.703 33.069 -61.703 33.069 -60.875 30.188 C-59.507 26.916 -58.059 23.68 -56.625 20.438 C-56.07 19.154 -56.07 19.154 -55.504 17.844 C-50.68 6.977 -44.884 -0.984 -35.062 -7.75 C-22.445 -11.956 -11.131 -5.528 0 0 Z " fill="#0475CE" transform="translate(326.875,53.8125)"/>
<path d="M0 0 C2.329 1.457 4.376 3.015 6.453 4.809 C7.783 5.953 7.783 5.953 9.141 7.121 C15.53 14.546 19.947 22.842 23.453 31.934 C25.992 38.252 27.845 42.388 34.328 45.184 C38.169 46.665 41.343 46.964 45.453 46.809 C46.154 58.012 46.593 69.208 46.703 80.434 C46.735 82.078 46.735 82.078 46.768 83.756 C46.774 85.286 46.774 85.286 46.781 86.848 C46.791 87.757 46.8 88.667 46.81 89.604 C46.692 90.332 46.574 91.059 46.453 91.809 C43.108 94.039 39.914 94.897 36.078 95.871 C35.418 96.044 34.758 96.218 34.078 96.396 C19.803 100.107 19.803 100.107 13.391 97.621 C11.091 96.202 9.37 94.899 7.391 93.121 C4.723 90.659 4.723 90.659 1.891 90.309 C-1.073 90.917 -2.979 92.219 -5.547 93.809 C-11.144 95.894 -16.628 96.618 -22.547 95.809 C-26.402 93.812 -28.145 92.412 -30.547 88.809 C-31.529 89.025 -31.529 89.025 -32.531 89.246 C-49.485 92.694 -49.485 92.694 -57.047 89.184 C-59.823 86.546 -61.605 84.095 -63.547 80.809 C-64.454 80.974 -65.362 81.139 -66.297 81.309 C-73.217 82.283 -81.232 83.237 -87.547 79.809 C-88.875 77.969 -88.875 77.969 -89.797 75.871 C-90.111 75.181 -90.426 74.492 -90.75 73.781 C-91.41 72.147 -91.99 70.481 -92.547 68.809 C-93.106 68.953 -93.666 69.097 -94.242 69.246 C-102.642 71.191 -112.559 72.627 -120.859 69.621 C-123.547 67.809 -123.547 67.809 -124.215 65.195 C-124.324 64.408 -124.434 63.62 -124.547 62.809 C-125.346 62.734 -126.145 62.659 -126.969 62.582 C-138.522 61.199 -149.647 57.085 -157.234 47.809 C-160.833 43.141 -161.818 40.762 -161.547 34.809 C-155.02 31.545 -147.263 34.853 -140.816 36.836 C-116.213 44.155 -89.563 34.619 -67.473 23.743 C-65.437 22.755 -63.386 21.808 -61.328 20.867 C-54.602 17.783 -48.083 14.616 -41.734 10.809 C-12.823 -5.998 -12.823 -5.998 0 0 Z " fill="#0575CD" transform="translate(171.546875,46.19140625)"/>
<path d="M0 0 C0 0.66 0 1.32 0 2 C0.603 2.251 1.207 2.503 1.828 2.762 C5.5 4.855 7.187 8.274 9 12 C9.562 14.812 9.562 14.812 9 17 C5.291 21.006 -0.321 21.807 -5.543 22.406 C-13.784 22.618 -18.972 21.505 -26.121 17.469 C-34.984 12.947 -47.245 13.033 -57 14 C-61.401 15.686 -61.401 15.686 -64.25 19.188 C-63.823 23.988 -61.522 26.81 -58 30 C-53.481 32.712 -48.833 34.89 -44 37 C-42.866 37.518 -41.731 38.036 -40.562 38.57 C-36.717 40.114 -32.968 41.146 -28.938 42.062 C-28.276 42.223 -27.614 42.383 -26.932 42.549 C-12.928 45.805 1.099 46.498 15.402 47.029 C26.253 47.444 36.409 48.553 47 51 C49.125 51.439 51.25 51.877 53.375 52.312 C61.472 54.193 69.217 57.12 77 60 C77 60.66 77 61.32 77 62 C77.701 62.082 78.403 62.165 79.125 62.25 C82.69 63.18 85.09 64.767 88 67 C88 67.66 88 68.32 88 69 C88.584 69.232 89.168 69.464 89.77 69.703 C92.554 71.322 93.848 73.116 95.688 75.75 C96.289 76.59 96.891 77.431 97.512 78.297 C100.987 84.609 100.595 92.433 99.438 99.375 C92.838 116.017 77.56 126.737 61.825 134.267 C57.92 135.835 55.703 135.296 51.887 133.688 C50.831 133.131 49.775 132.574 48.688 132 C47.619 131.443 46.55 130.886 45.449 130.312 C44.641 129.879 43.833 129.446 43 129 C43 127.02 43 125.04 43 123 C44.039 122.576 45.078 122.152 46.148 121.715 C61.489 115.483 61.489 115.483 73 104 C73.619 103.103 73.619 103.103 74.25 102.188 C75.893 97.395 75.55 93.299 73.625 88.75 C72.821 87.389 72.821 87.389 72 86 C71.711 85.257 71.423 84.515 71.125 83.75 C69.548 81.298 67.715 80.857 65 80 C65 79.34 65 78.68 65 78 C64.277 77.721 63.553 77.443 62.808 77.156 C60 76 60 76 57.667 74.788 C47.546 69.806 36.895 69.595 25.812 68.812 C21.902 68.513 17.992 68.203 14.082 67.895 C13.135 67.821 12.188 67.748 11.212 67.672 C-3.425 66.522 -17.06 64.805 -31 60 C-32.132 59.611 -32.132 59.611 -33.288 59.214 C-43.688 55.567 -52.879 51.257 -62 45 C-62.757 44.509 -63.513 44.018 -64.293 43.512 C-70.751 39.077 -77.121 32.389 -80 25 C-80.546 20.241 -80.606 15.641 -78.938 11.125 C-66.295 -2.741 -42.914 -2.994 -25.346 -3.859 C-6.1 -4.555 -6.1 -4.555 0 0 Z " fill="#0976CB" transform="translate(200,169)"/>
<path d="M0 0 C4.642 3.97 7.813 8.984 9 15 C9.157 20.456 7.54 25.192 5 30 C4.155 30.711 3.31 31.422 2.439 32.155 C-0.896 36.044 -0.758 38.859 -0.781 43.832 C-0.816 45.151 -0.816 45.151 -0.852 46.496 C-0.923 49.331 -0.961 52.165 -1 55 C-1.044 56.816 -1.091 58.631 -1.141 60.447 C-1.299 66.526 -1.4 72.607 -1.5 78.688 C-1.541 81.022 -1.582 83.357 -1.623 85.692 C-1.881 100.91 -2.063 116.13 -2.219 131.35 C-2.25 134.414 -2.282 137.478 -2.314 140.542 C-2.409 149.733 -2.501 158.923 -2.581 168.114 C-2.615 171.965 -2.653 175.815 -2.692 179.665 C-2.71 181.483 -2.726 183.3 -2.74 185.117 C-2.759 187.613 -2.784 190.109 -2.811 192.605 C-2.817 193.716 -2.817 193.716 -2.823 194.85 C-2.886 199.886 -2.886 199.886 -4 201 C-6.107 200.935 -8.212 200.798 -10.312 200.625 C-11.464 200.535 -12.615 200.445 -13.801 200.352 C-18.726 199.81 -18.726 199.81 -21 199 C-22.233 196.535 -22.151 194.873 -22.189 192.114 C-22.206 191.073 -22.223 190.032 -22.24 188.959 C-22.254 187.802 -22.267 186.645 -22.281 185.453 C-22.299 184.223 -22.317 182.993 -22.335 181.726 C-22.373 179.01 -22.41 176.294 -22.444 173.578 C-22.49 169.951 -22.545 166.325 -22.603 162.699 C-22.875 145.594 -23.022 128.494 -23.007 111.387 C-23.001 103.896 -23.021 96.406 -23.046 88.915 C-23.064 82.58 -23.047 76.246 -23.006 69.91 C-22.988 65.914 -23.004 61.918 -23.028 57.922 C-23.033 56.055 -23.024 54.187 -22.999 52.32 C-22.551 40.518 -22.551 40.518 -27.998 30.495 C-28.72 29.866 -29.442 29.238 -30.186 28.591 C-32.676 26.407 -32.957 24.568 -33.203 21.328 C-33.299 15.056 -33.02 10.537 -30 5 C-29.34 5 -28.68 5 -28 5 C-27.773 4.402 -27.546 3.804 -27.312 3.188 C-25.364 -0.06 -22.696 -1.494 -19.102 -2.566 C-12.526 -3.923 -5.837 -3.473 0 0 Z " fill="#0775CC" transform="translate(244,14)"/>
<path d="M0 0 C5.612 0.126 11.113 0.904 16.66 1.719 C17.669 1.862 18.678 2.005 19.717 2.152 C22.178 2.502 24.638 2.858 27.098 3.219 C27.098 4.209 27.098 5.199 27.098 6.219 C25.901 6.776 24.705 7.333 23.473 7.906 C20.576 9.339 18.161 10.85 15.723 12.969 C13.098 15.219 13.098 15.219 11.098 15.219 C8.315 21.726 7.322 27.27 9.098 34.219 C10.911 37.566 10.911 37.566 13.098 40.219 C13.562 41.332 13.562 41.332 14.035 42.469 C15.578 45.009 17.304 45.208 20.098 46.219 C21.483 46.971 22.857 47.744 24.223 48.531 C34.552 54.353 45.614 58.407 56.689 62.557 C73.623 68.97 86.105 76.742 94.207 93.516 C97.113 102.336 95.626 112.225 91.711 120.441 C88.98 125.143 85.75 129.202 82.098 133.219 C81.067 134.354 81.067 134.354 80.016 135.512 C76.443 139.262 73.156 142.645 68.098 144.219 C65.285 143.531 65.285 143.531 63.098 142.219 C61.197 138.417 61.622 133.764 62.848 129.781 C64.449 127.78 65.665 127.827 68.098 127.219 C69.165 125.419 69.165 125.419 70.098 123.219 C70.696 122.517 71.294 121.816 71.91 121.094 C75.551 116.308 78.436 111.108 79.785 105.219 C78.168 98.164 73.966 92.361 68.098 88.219 C68.098 87.559 68.098 86.899 68.098 86.219 C66.448 85.889 64.798 85.559 63.098 85.219 C63.098 84.559 63.098 83.899 63.098 83.219 C62.371 83.099 61.644 82.979 60.895 82.855 C58.093 82.218 55.92 81.297 53.348 80.031 C48.617 77.809 43.855 76.066 38.91 74.406 C17.97 67.253 -4.577 55.657 -14.926 35.195 C-17.857 28.392 -17.809 22.105 -15.34 15.156 C-12.582 8.819 -7.224 0.405 0 0 Z " fill="#0B77CB" transform="translate(179.90234375,235.78125)"/>
<path d="M0 0 C1.486 0.023 2.972 0.046 4.458 0.067 C45.06 0.863 45.06 0.863 58.25 14.562 C60.792 19.157 60.568 23.562 59.25 28.562 C51.034 46.637 31.97 55.429 14.625 62.656 C8.506 64.951 2.735 66.091 -3.422 63.391 C-5.4 62.353 -7.37 61.299 -9.332 60.23 C-15.519 57.211 -22.148 55.456 -28.75 53.562 C-28.75 52.572 -28.75 51.583 -28.75 50.562 C-28.198 50.518 -27.645 50.473 -27.076 50.427 C-4.767 48.571 18.851 46.265 37.508 32.699 C39.25 31.562 39.25 31.562 41.25 31.562 C42.211 28.68 42.356 26.864 42.312 23.875 C42.303 23.067 42.294 22.259 42.285 21.426 C42.274 20.811 42.262 20.196 42.25 19.562 C37.945 17.452 33.96 17.214 29.25 17.25 C28.125 17.257 28.125 17.257 26.978 17.265 C18.195 17.447 10.095 18.773 2.438 23.25 C-4.863 27.18 -14.155 26.849 -22 24.652 C-24.33 23.729 -26.545 22.75 -28.75 21.562 C-29.15 17.003 -29.345 13.817 -26.75 9.938 C-18.78 0.659 -11.903 -0.341 0 0 Z " fill="#0C77CB" transform="translate(283.75,165.4375)"/>
<path d="M0 0 C8.241 2.747 8.241 2.747 11.562 5.188 C12.625 7.812 12.625 7.812 12.562 10.188 C12.233 10.848 11.903 11.507 11.562 12.188 C10.572 12.188 9.583 12.188 8.562 12.188 C8.233 13.178 7.903 14.168 7.562 15.188 C5.583 16.878 3.583 18.546 1.562 20.188 C1.233 20.848 0.903 21.507 0.562 22.188 C-0.097 22.188 -0.757 22.188 -1.438 22.188 C-3.298 28.458 -3.417 35.576 -1.125 41.688 C-0.038 43.297 1.085 44.884 2.25 46.438 C3.562 48.188 3.562 48.188 3.562 50.188 C5.048 50.683 5.048 50.683 6.562 51.188 C6.562 51.847 6.562 52.507 6.562 53.188 C7.222 53.188 7.882 53.188 8.562 53.188 C8.562 53.847 8.562 54.507 8.562 55.188 C9.149 55.462 9.736 55.737 10.34 56.02 C12.484 57.146 14.226 58.378 16.125 59.875 C21.821 64.224 27.897 67.994 34.043 71.672 C35.912 72.797 37.742 73.985 39.562 75.188 C39.562 75.847 39.562 76.507 39.562 77.188 C40.302 77.425 41.042 77.662 41.805 77.906 C47.43 80.52 51.084 86.193 53.777 91.648 C56.402 99.124 56.064 106.935 53.438 114.375 C48.583 121.657 43.384 127.678 36.562 133.188 C34.59 132.027 34.59 132.027 32.562 130.188 C32.066 127.629 32.066 127.629 32.125 124.75 C32.126 123.803 32.128 122.855 32.129 121.879 C32.621 118.827 33.427 117.396 35.562 115.188 C36.222 115.188 36.882 115.188 37.562 115.188 C37.562 114.528 37.562 113.868 37.562 113.188 C38.222 113.188 38.882 113.188 39.562 113.188 C40.991 104.269 40.991 104.269 37.562 96.188 C35.176 92.993 32.92 90.426 29.562 88.188 C29.562 87.528 29.562 86.868 29.562 86.188 C28.841 85.94 28.119 85.692 27.375 85.438 C24.263 84.054 22.2 82.345 19.562 80.188 C15.527 77.355 11.462 74.682 7.141 72.305 C-4.951 65.431 -14.456 53.453 -19.5 40.562 C-21.647 32.65 -21.471 24.605 -17.699 17.273 C-15.525 13.679 -13.147 10.397 -10.438 7.188 C-9.878 6.498 -9.319 5.808 -8.742 5.098 C-4.455 0.243 -4.455 0.243 0 0 Z " fill="#1078CB" transform="translate(208.4375,308.8125)"/>
<path d="M0 0 C2.394 1.701 2.938 2.637 3.434 5.559 C3.444 13.433 3.444 13.433 1.188 16.312 C0.466 16.869 -0.256 17.426 -1 18 C-4.117 22.898 -4.463 26.353 -4 32 C-3.34 32.99 -2.68 33.98 -2 35 C-2 35.99 -2 36.98 -2 38 C-1.361 38.268 -0.721 38.536 -0.062 38.812 C2 40 2 40 3 43 C4.666 43.667 6.333 44.334 8 45 C10.133 46.646 12.164 48.294 14.188 50.062 C17.859 53.368 17.859 53.368 22 56 C22 56.66 22 57.32 22 58 C22.66 58 23.32 58 24 58 C32.541 68.778 33.752 78.561 32.793 91.875 C31.743 100.551 28.17 107.462 24 115 C23.01 115 22.02 115 21 115 C21.024 113.624 21.024 113.624 21.048 112.221 C21.099 108.773 21.137 105.326 21.165 101.877 C21.18 100.394 21.2 98.91 21.226 97.426 C21.563 81.349 21.563 81.349 13.879 67.73 C8.964 63.204 3.999 58.975 -2 56 C-4.75 53.5 -4.75 53.5 -7 51 C-7 50.34 -7 49.68 -7 49 C-7.66 49 -8.32 49 -9 49 C-15.795 41.412 -20.502 33.375 -20 23 C-18.82 14.844 -14.604 7.899 -9 2 C-5.531 -0.313 -4.078 -0.425 0 0 Z " fill="#0C76CA" transform="translate(219,386)"/>
<path d="M0 0 C1.729 -0.054 3.458 -0.093 5.188 -0.125 C6.15 -0.148 7.113 -0.171 8.105 -0.195 C11.142 0.01 13.221 0.817 16 2 C16.115 19.366 16.01 36.656 15 54 C10.722 53.644 7.573 52.944 3.75 50.953 C3.044 50.589 2.337 50.224 1.609 49.849 C1.078 49.569 0.547 49.289 0 49 C-0.168 42.343 -0.328 35.686 -0.482 29.029 C-0.536 26.763 -0.591 24.497 -0.648 22.231 C-0.73 18.98 -0.805 15.728 -0.879 12.477 C-0.906 11.459 -0.933 10.441 -0.961 9.392 C-0.981 8.452 -1.001 7.511 -1.022 6.542 C-1.042 5.711 -1.062 4.88 -1.082 4.025 C-1 2 -1 2 0 0 Z " fill="#0273CC" transform="translate(224,241)"/>
<path d="M0 0 C5 1 5 1 15 5 C15 22.16 15 39.32 15 57 C10.436 56.087 9.143 55.694 5.75 53 C5.064 52.464 4.378 51.928 3.672 51.375 C1.023 49.197 1.023 49.197 0.684 46.309 C-0.297 30.887 -0.092 15.445 0 0 Z " fill="#0F7ACF" transform="translate(224,316)"/>
<path d="M0 0 C0.99 0.33 1.98 0.66 3 1 C3.02 1.917 3.04 2.834 3.06 3.779 C3.139 7.227 3.226 10.675 3.317 14.123 C3.355 15.606 3.39 17.09 3.422 18.574 C3.874 39.544 10.3 53.267 21 71 C19.515 71.495 19.515 71.495 18 72 C14.812 69.688 14.812 69.688 12 67 C12 66.34 12 65.68 12 65 C10.515 64.505 10.515 64.505 9 64 C6.072 60.525 3.554 56.756 1 53 C0.581 52.385 0.162 51.77 -0.27 51.137 C-6.887 40.512 -9.978 26.251 -7.25 13.938 C-5.825 8.859 -3.758 3.758 0 0 Z " fill="#0C75C7" transform="translate(219,447)"/>
<path d="M0 0 C5.909 1.104 10.435 4.208 14 9 C14.919 13.992 14.669 18.622 14.208 23.655 C13.994 26.064 13.856 28.467 13.738 30.883 C13.538 34.926 13.283 38.962 13 43 C3.658 39.392 3.658 39.392 1 35 C-0.054 29.003 -0.036 23.074 0 17 C-0.011 15.348 -0.024 13.695 -0.039 12.043 C-0.066 8.028 -0.046 4.015 0 0 Z " fill="#0572C8" transform="translate(225,392)"/>
<path d="M0 0 C5.465 2.494 8.612 6.436 10.812 11.938 C14.355 23.966 11.747 38.606 11 51 C10.01 51.495 10.01 51.495 9 52 C7.87 49.794 6.746 47.586 5.625 45.375 C5.308 44.758 4.991 44.14 4.664 43.504 C4.355 42.892 4.045 42.279 3.727 41.648 C3.444 41.093 3.161 40.538 2.87 39.966 C0.513 34.637 -0.242 30.254 -0.195 24.414 C-0.191 23.361 -0.191 23.361 -0.187 22.287 C-0.176 20.066 -0.151 17.846 -0.125 15.625 C-0.115 14.111 -0.106 12.596 -0.098 11.082 C-0.076 7.388 -0.041 3.694 0 0 Z " fill="#177AC7" transform="translate(226,453)"/>
<path d="M0 0 C1.875 0.25 1.875 0.25 4 1 C5.689 3.72 6.252 5.824 6.272 9.001 C6.281 9.789 6.291 10.577 6.301 11.39 C6.302 12.247 6.302 13.105 6.303 13.989 C6.311 14.902 6.32 15.815 6.329 16.756 C6.355 19.798 6.367 22.84 6.379 25.883 C6.395 28.031 6.412 30.179 6.429 32.327 C6.465 36.892 6.496 41.458 6.521 46.023 C6.561 53.108 6.614 60.193 6.67 67.278 C6.679 68.443 6.688 69.609 6.698 70.81 C6.716 73.156 6.735 75.502 6.754 77.849 C6.781 81.353 6.808 84.858 6.834 88.362 C6.974 106.723 7.217 125.08 7.562 143.438 C7.596 145.245 7.596 145.245 7.63 147.089 C7.748 153.393 7.87 159.697 8 166 C7.01 165.67 6.02 165.34 5 165 C4.885 157.953 4.773 150.906 4.663 143.858 C4.607 140.247 4.551 136.635 4.493 133.023 C4.188 114.018 3.963 95.015 3.838 76.008 C3.795 69.556 3.744 63.105 3.694 56.653 C3.645 50.269 3.61 43.885 3.584 37.5 C3.564 33.483 3.532 29.465 3.497 25.448 C3.484 23.562 3.475 21.677 3.472 19.791 C3.467 17.2 3.444 14.61 3.417 12.02 C3.42 11.26 3.423 10.501 3.426 9.718 C3.359 5.542 2.98 3.03 0 0 Z " fill="#3B84BB" transform="translate(217,46)"/>
<path d="M0 0 C1.729 -0.054 3.458 -0.093 5.188 -0.125 C6.15 -0.148 7.113 -0.171 8.105 -0.195 C11.142 0.01 13.221 0.817 16 2 C16.115 19.366 16.01 36.656 15 54 C10.722 53.644 7.573 52.944 3.75 50.953 C3.044 50.589 2.337 50.224 1.609 49.849 C1.078 49.569 0.547 49.289 0 49 C-0.168 42.343 -0.328 35.686 -0.482 29.029 C-0.536 26.763 -0.591 24.497 -0.648 22.231 C-0.73 18.98 -0.805 15.728 -0.879 12.477 C-0.906 11.459 -0.933 10.441 -0.961 9.392 C-0.981 8.452 -1.001 7.511 -1.022 6.542 C-1.042 5.711 -1.062 4.88 -1.082 4.025 C-1 2 -1 2 0 0 Z M1 2 C0.899 8.354 0.829 14.707 0.78 21.061 C0.76 23.223 0.733 25.386 0.698 27.548 C0.65 30.653 0.627 33.758 0.609 36.863 C0.589 37.832 0.568 38.801 0.547 39.799 C0.547 40.7 0.546 41.601 0.546 42.529 C0.537 43.321 0.528 44.114 0.519 44.931 C0.845 47.158 0.845 47.158 2.778 48.779 C5.162 50.321 5.162 50.321 9 50 C9 50.66 9 51.32 9 52 C10.65 52.33 12.3 52.66 14 53 C14 36.5 14 20 14 3 C10.527 2.305 8.087 1.88 4.688 1.938 C3.471 1.958 2.254 1.979 1 2 Z " fill="#3880B3" transform="translate(224,241)"/>
<path d="M0 0 C2.494 1.204 4.681 2.454 7 4 C7 4.66 7 5.32 7 6 C7.66 6 8.32 6 9 6 C9.054 7.729 9.093 9.458 9.125 11.188 C9.148 12.15 9.171 13.113 9.195 14.105 C8.991 17.128 8.269 19.268 7 22 C5.35 21.67 3.7 21.34 2 21 C-0.771 14.319 -1.671 8.228 -1 1 C-0.67 0.67 -0.34 0.34 0 0 Z " fill="#207BC3" transform="translate(227,515)"/>
<path d="M0 0 C1.875 0.25 1.875 0.25 4 1 C5.902 3.973 6.249 6.302 6.243 9.792 C6.246 10.748 6.249 11.705 6.252 12.69 C6.245 13.727 6.238 14.764 6.23 15.832 C6.23 16.921 6.23 18.01 6.23 19.131 C6.226 22.692 6.207 26.252 6.188 29.812 C6.181 32.255 6.174 34.697 6.168 37.139 C6.095 57.435 5.684 77.716 5 98 C4.67 98 4.34 98 4 98 C3.994 96.831 3.988 95.662 3.982 94.458 C3.925 83.452 3.852 72.445 3.764 61.439 C3.72 55.78 3.68 50.122 3.654 44.463 C3.628 39.003 3.587 33.544 3.537 28.085 C3.52 26 3.509 23.916 3.502 21.831 C3.493 18.915 3.465 15.999 3.432 13.083 C3.434 12.218 3.435 11.354 3.437 10.463 C3.368 6.082 3.322 3.23 0 0 Z " fill="#519CCD" transform="translate(217,46)"/>
<path d="M0 0 C3.81 0.953 5.269 1.727 8.25 4.062 C8.956 4.61 9.663 5.158 10.391 5.723 C11.187 6.355 11.187 6.355 12 7 C11.34 7.66 10.68 8.32 10 9 C7.36 7.02 4.72 5.04 2 3 C1.67 7.62 1.34 12.24 1 17 C0.67 17 0.34 17 0 17 C0 11.39 0 5.78 0 0 Z M12 8 C12.66 8.33 13.32 8.66 14 9 C14.128 20.38 13.796 31.647 13 43 C9.347 41.75 8.219 41.329 6 38 C7.65 38.33 9.3 38.66 11 39 C11.495 23.655 11.495 23.655 12 8 Z M1 19 C1.33 19 1.66 19 2 19 C2.037 20.036 2.075 21.073 2.113 22.141 C2.179 23.51 2.245 24.88 2.312 26.25 C2.346 27.273 2.346 27.273 2.381 28.316 C2.602 32.452 3.096 34.979 6 38 C2.125 36.125 2.125 36.125 1 35 C0.927 32.303 0.908 29.633 0.938 26.938 C0.942 26.179 0.947 25.42 0.951 24.639 C0.963 22.759 0.981 20.88 1 19 Z " fill="#6FA3C6" transform="translate(225,392)"/>
<path d="M0 0 C9.596 0.394 18.92 1.365 28.405 2.841 C37.3 4.163 46.227 4.756 55.202 5.265 C56.303 5.334 57.405 5.402 58.539 5.473 C59.521 5.527 60.503 5.581 61.514 5.637 C64 6 64 6 67 8 C53.915 8.377 41.015 7.26 28 6 C26.732 5.88 26.732 5.88 25.438 5.757 C16.728 4.913 8.364 3.71 0 1 C0 0.67 0 0.34 0 0 Z " fill="#4089BE" transform="translate(175,230)"/>
<path d="M0 0 C4.109 4.109 4.137 10.735 4.25 16.312 C3.928 28.501 0.819 37.482 -5 48 C-5.99 48 -6.98 48 -8 48 C-8 41.07 -8 34.14 -8 27 C-7.67 27 -7.34 27 -7 27 C-6.67 32.61 -6.34 38.22 -6 44 C0.016 37.984 1.338 23.73 1.375 15.625 C1.25 11.967 0.74 8.578 0 5 C-0.037 3.334 -0.048 1.666 0 0 Z " fill="#428CC1" transform="translate(248,453)"/>
<path d="M0 0 C1.32 0 2.64 0 4 0 C4 17.16 4 34.32 4 52 C3.01 52 2.02 52 1 52 C1.002 51.378 1.004 50.756 1.007 50.115 C1.029 43.659 1.044 37.203 1.055 30.748 C1.06 28.336 1.067 25.925 1.075 23.513 C1.088 20.053 1.093 16.593 1.098 13.133 C1.103 12.049 1.108 10.966 1.113 9.85 C1.113 8.849 1.113 7.848 1.114 6.817 C1.116 5.933 1.118 5.049 1.12 4.139 C1.139 1.947 1.139 1.947 0 0 Z " fill="#3B85BB" transform="translate(235,321)"/>
<path d="M0 0 C5.789 3.473 8.157 8.728 10 15 C11.513 26.26 9.279 35.582 3 45 C2.34 45 1.68 45 1 45 C1.614 41.106 2.856 38.04 4.562 34.5 C7.708 27.035 8.711 19.788 5.938 12.027 C4.272 8.582 2.713 5.713 0 3 C0 2.01 0 1.02 0 0 Z " fill="#2C7CB8" transform="translate(265,317)"/>
<path d="M0 0 C-0.99 0 -1.98 0 -3 0 C-3.33 0.99 -3.66 1.98 -4 3 C-5.114 3 -6.227 3 -7.375 3 C-13.463 3.708 -17.705 7.906 -22 12 C-22.33 12.66 -22.66 13.32 -23 14 C-23.66 14 -24.32 14 -25 14 C-25 16.97 -25 19.94 -25 23 C-24.01 23.33 -23.02 23.66 -22 24 C-20.832 25.848 -20.832 25.848 -19.812 28.062 C-19.468 28.796 -19.124 29.529 -18.77 30.285 C-18.516 30.851 -18.262 31.417 -18 32 C-21 32 -21 32 -22.387 30.637 C-26.258 24.836 -26.966 19.889 -26 13 C-24.209 8.154 -20.453 5.405 -16 3 C-4.65 -1.709 -4.65 -1.709 0 0 Z " fill="#6FA8CF" transform="translate(146,170)"/>
<path d="M0 0 C-2.775 6.56 -7.77 10.962 -13.5 14.938 C-14.105 15.362 -14.71 15.787 -15.334 16.224 C-32.174 27.821 -32.174 27.821 -39 27 C-41.312 25.5 -41.312 25.5 -43 24 C-41.783 24.248 -40.566 24.495 -39.312 24.75 C-35.974 25.172 -35.338 25.231 -32.438 23.25 C-31.633 22.507 -30.829 21.765 -30 21 C-27.675 19.98 -25.342 18.979 -23 18 C-22.257 17.443 -21.515 16.886 -20.75 16.312 C-19 15 -19 15 -16 15 C-15.773 14.423 -15.546 13.845 -15.312 13.25 C-13.652 10.403 -11.685 8.879 -9 7 C-8.34 7 -7.68 7 -7 7 C-6.732 6.402 -6.464 5.804 -6.188 5.188 C-3.371 0 -3.371 0 0 0 Z " fill="#3183C3" transform="translate(294,277)"/>
<path d="M0 0 C1.553 0.03 3.107 0.058 4.66 0.082 C8.442 0.148 12.22 0.251 16 0.375 C16 0.705 16 1.035 16 1.375 C15.067 1.369 14.135 1.362 13.174 1.356 C9.685 1.349 6.2 1.373 2.713 1.418 C1.208 1.431 -0.296 1.432 -1.8 1.42 C-10.503 1.126 -10.503 1.126 -18.506 3.903 C-20.249 5.64 -21.626 7.341 -23 9.375 C-23.784 10.241 -24.567 11.107 -25.375 12 C-27.139 14.578 -27.836 16.26 -28 19.375 C-27.34 20.365 -26.68 21.355 -26 22.375 C-27.32 22.045 -28.64 21.715 -30 21.375 C-30.4 16.815 -30.595 13.63 -28 9.75 C-27.017 8.61 -26.015 7.487 -25 6.375 C-24.523 5.837 -24.046 5.3 -23.555 4.746 C-16.848 -1.477 -8.529 -0.288 0 0 Z " fill="#418ABE" transform="translate(285,165.625)"/>
<path d="M0 0 C0.33 0.66 0.66 1.32 1 2 C0.039 4.102 0.039 4.102 -1.375 6.625 C-5.523 14.679 -5.588 22.106 -4 31 C-3.347 32.34 -2.683 33.675 -2 35 C-2.375 37.25 -2.375 37.25 -3 39 C-8.023 31.466 -8.951 23.904 -8 15 C-6.354 9.434 -3.363 4.684 0 0 Z " fill="#478FC3" transform="translate(196,318)"/>
<path d="M0 0 C0.66 0 1.32 0 2 0 C2.112 17.032 2.051 33.992 1 51 C0.67 51 0.34 51 0 51 C-0.168 44.862 -0.329 38.724 -0.482 32.586 C-0.535 30.499 -0.591 28.413 -0.648 26.327 C-0.731 23.321 -0.805 20.315 -0.879 17.309 C-0.906 16.382 -0.933 15.456 -0.961 14.502 C-1.074 9.528 -0.871 4.9 0 0 Z " fill="#3C84BA" transform="translate(238,243)"/>
<path d="M0 0 C0.66 0.99 1.32 1.98 2 3 C1.524 4.63 1.043 6.259 0.531 7.879 C-1.936 17.731 1.341 27.54 4 37 C4.33 37 4.66 37 5 37 C5 38.65 5 40.3 5 42 C-0.22 37.645 -1.45 29.702 -2.75 23.312 C-3.39 14.833 -2.706 8.119 0 0 Z " fill="#5E9AC6" transform="translate(214,454)"/>
<path d="M0 0 C0.66 0.33 1.32 0.66 2 1 C-2.538 5.49 -7.397 6.451 -13.438 7.75 C-14.412 7.967 -15.387 8.184 -16.391 8.407 C-24.04 10.012 -31.18 10.601 -39 10 C-39 9.67 -39 9.34 -39 9 C-37.802 8.83 -36.605 8.66 -35.371 8.484 C-18.44 6.05 -18.44 6.05 -2.211 0.816 C-1.481 0.547 -0.752 0.278 0 0 Z " fill="#5FA1CE" transform="translate(307,206)"/>
<path d="M0 0 C0.66 0 1.32 0 2 0 C2.153 11.372 1.684 22.65 1 34 C0.01 34.495 0.01 34.495 -1 35 C-1.7 33.736 -2.384 32.463 -3.062 31.188 C-3.637 30.126 -3.637 30.126 -4.223 29.043 C-5 27 -5 27 -4 24 C-2 27 -2 27 -1 29 C-1.005 28.441 -1.01 27.883 -1.016 27.307 C-1.037 24.725 -1.05 22.144 -1.062 19.562 C-1.075 18.245 -1.075 18.245 -1.088 16.9 C-1.109 11.182 -0.733 5.672 0 0 Z " fill="#5093C2" transform="translate(236,470)"/>
<path d="M0 0 C1.25 3.817 0.394 5.414 -1.293 9.012 C-3.302 14.663 -1.983 21.227 -1 27 C-0.01 27.33 0.98 27.66 2 28 C3.75 30.375 3.75 30.375 5 33 C4.67 33.99 4.34 34.98 4 36 C-1.966 29.088 -5.509 22.194 -4.938 12.875 C-4.256 7.978 -2.449 4.266 0 0 Z " fill="#5D99C6" transform="translate(204,396)"/>
<path d="M0 0 C3.63 0 7.26 0 11 0 C11 0.33 11 0.66 11 1 C8.36 1.33 5.72 1.66 3 2 C2.975 2.614 2.95 3.228 2.924 3.861 C2.807 6.699 2.685 9.537 2.562 12.375 C2.504 13.823 2.504 13.823 2.443 15.301 C2.17 21.563 1.697 27.771 1 34 C0.67 34 0.34 34 0 34 C0 22.78 0 11.56 0 0 Z " fill="#146AAC" transform="translate(246,94)"/>
<path d="M0 0 C0.227 0.639 0.454 1.279 0.688 1.938 C1.805 4.192 1.805 4.192 4.098 4.621 C7.657 5.086 11.167 5.149 14.75 5.125 C15.456 5.123 16.162 5.121 16.889 5.119 C21.999 5.077 26.945 4.722 32 4 C31 6 31 6 29.207 6.633 C20.884 8.344 10.339 10.413 2.625 6 C1.759 5.34 0.892 4.68 0 4 C0 2.68 0 1.36 0 0 Z M32 5 C33 9 33 9 33 9 Z " fill="#2D7CB8" transform="translate(48,109)"/>
<path d="M0 0 C0.33 0.99 0.66 1.98 1 3 C0.192 2.965 -0.616 2.93 -1.449 2.895 C-3.052 2.854 -3.052 2.854 -4.688 2.812 C-5.743 2.778 -6.799 2.743 -7.887 2.707 C-13.236 3.21 -16.705 6.438 -20.812 9.688 C-21.603 10.31 -22.393 10.933 -23.207 11.574 C-23.799 12.045 -24.39 12.515 -25 13 C-25 10 -25 10 -23.461 8.281 C-15.548 1.524 -10.44 -0.502 0 0 Z " fill="#5196C9" transform="translate(306,45)"/>
<path d="M0 0 C1.32 0.33 2.64 0.66 4 1 C3.01 1 2.02 1 1 1 C0.814 2.176 0.814 2.176 0.625 3.375 C0 6 0 6 -2 8 C-10.898 10.477 -21.246 9.626 -30 7 C-30.66 6.34 -31.32 5.68 -32 5 C-26.872 4.826 -23.756 5.098 -19 7 C-12.717 7.412 -6.731 6.865 -1 4 C-0.348 1.975 -0.348 1.975 0 0 Z " fill="#589AC9" transform="translate(415,108)"/>
<path d="M0 0 C0.66 0 1.32 0 2 0 C2.33 0.99 2.66 1.98 3 3 C2.67 3.33 2.34 3.66 2 4 C1.907 5.351 1.883 6.707 1.886 8.061 C1.887 8.922 1.887 9.782 1.887 10.669 C1.892 11.605 1.897 12.54 1.902 13.504 C1.904 14.457 1.905 15.41 1.907 16.392 C1.912 19.449 1.925 22.506 1.938 25.562 C1.943 27.63 1.947 29.697 1.951 31.764 C1.962 36.842 1.979 41.921 2 47 C1.67 47 1.34 47 1 47 C0.074 36.512 -0.124 26.144 -0.062 15.625 C-0.057 14.099 -0.053 12.573 -0.049 11.047 C-0.038 7.365 -0.021 3.682 0 0 Z " fill="#1468A7" transform="translate(225,317)"/>
<path d="M0 0 C4.499 3.824 7.018 9.549 9 15 C5.131 14.427 2.848 12.61 0 10 C0 9.34 0 8.68 0 8 C-0.99 7.67 -1.98 7.34 -3 7 C-2.67 6.34 -2.34 5.68 -2 5 C-1.01 5.33 -0.02 5.66 1 6 C0.67 4.02 0.34 2.04 0 0 Z " fill="#448ABD" transform="translate(231,504)"/>
<path d="M0 0 C0.33 0 0.66 0 1 0 C1.037 1.036 1.075 2.073 1.113 3.141 C1.179 4.51 1.245 5.88 1.312 7.25 C1.346 8.273 1.346 8.273 1.381 9.316 C1.602 13.452 2.096 15.979 5 19 C1.125 17.125 1.125 17.125 0 16 C-0.073 13.303 -0.092 10.633 -0.062 7.938 C-0.058 7.179 -0.053 6.42 -0.049 5.639 C-0.037 3.759 -0.019 1.88 0 0 Z M10 14 C10.66 14 11.32 14 12 14 C12 17.3 12 20.6 12 24 C8.347 22.75 7.219 22.329 5 19 C7.475 19.495 7.475 19.495 10 20 C10 18.02 10 16.04 10 14 Z " fill="#5195C4" transform="translate(226,411)"/>
<path d="M0 0 C3 0.125 3 0.125 6 1 C7.125 3 7.125 3 8 5 C12.927 7.274 19.867 6.283 25 5 C25.33 5.66 25.66 6.32 26 7 C21.224 9.547 16.276 9.701 11 9 C7.145 7.003 5.402 5.603 3 2 C0.416 1.75 0.416 1.75 -2 2 C-1.34 1.34 -0.68 0.68 0 0 Z " fill="#5798C7" transform="translate(138,133)"/>
<path d="M0 0 C0.99 0 1.98 0 3 0 C5.612 8.092 7.712 15.412 7 24 C6.34 24 5.68 24 5 24 C4.89 22.987 4.781 21.974 4.668 20.93 C4.508 19.578 4.348 18.226 4.188 16.875 C4.117 16.21 4.047 15.545 3.975 14.859 C3.42 10.33 2.118 7.005 0 3 C0 2.01 0 1.02 0 0 Z " fill="#4F95C7" transform="translate(236,455)"/>
<path d="M0 0 C2 1 2 1 2 1 Z M2 1 C6.924 2.688 10.344 5.344 14 9 C14.66 8.67 15.32 8.34 16 8 C19.875 14.75 19.875 14.75 21 17 C17.291 15.313 14.672 13.062 11.684 10.34 C9.928 8.785 9.928 8.785 7 8 C4.312 5.562 4.312 5.562 2 3 C2 2.34 2 1.68 2 1 Z " fill="#4A94C9" transform="translate(210,434)"/>
<path d="M0 0 C0.676 1.746 0.676 1.746 1 4 C-0.145 6.035 -0.145 6.035 -1.812 8.062 C-2.355 8.734 -2.898 9.406 -3.457 10.098 C-3.966 10.725 -4.475 11.353 -5 12 C-5.99 13.485 -5.99 13.485 -7 15 C-9.625 16.188 -9.625 16.188 -12 17 C-12 15.68 -12 14.36 -12 13 C-11.072 12.876 -11.072 12.876 -10.125 12.75 C-7.87 12.214 -7.87 12.214 -7 10.25 C-6.67 9.507 -6.34 8.765 -6 8 C-4.687 6.317 -3.354 4.65 -2 3 C-1.34 2.01 -0.68 1.02 0 0 Z " fill="#3386C3" transform="translate(256,351)"/>
<path d="M0 0 C5.61 0 11.22 0 17 0 C17 0.99 17 1.98 17 3 C14.03 4.32 11.06 5.64 8 7 C7.67 6.01 7.34 5.02 7 4 C7.66 4 8.32 4 9 4 C8.67 3.34 8.34 2.68 8 2 C6.105 1.535 6.105 1.535 3.938 1.375 C2.638 1.251 1.339 1.127 0 1 C0 0.67 0 0.34 0 0 Z " fill="#1870B4" transform="translate(190,239)"/>
<path d="M0 0 C1.938 0.625 1.938 0.625 4 2 C5.65 7.636 5.77 14.359 4.125 20 C3 22 3 22 1 23 C1.084 22.31 1.168 21.621 1.254 20.91 C2.036 13.691 2.319 6.956 0 0 Z " fill="#3181BD" transform="translate(295,248)"/>
<path d="M0 0 C0.66 0 1.32 0 2 0 C0.498 4.38 -2.347 5.648 -6.312 7.75 C-7.443 8.364 -8.574 8.977 -9.738 9.609 C-12.883 10.95 -14.649 11.447 -18 11 C-20.312 9.5 -20.312 9.5 -22 8 C-20.783 8.248 -19.566 8.495 -18.312 8.75 C-14.974 9.172 -14.338 9.231 -11.438 7.25 C-10.633 6.507 -9.829 5.765 -9 5 C-7.211 4.133 -7.211 4.133 -5.312 3.375 C-1.987 2.242 -1.987 2.242 0 0 Z " fill="#458CC2" transform="translate(273,293)"/>
<path d="M0 0 C8.418 -0.495 17.561 0.847 25 5 C24.01 5.33 23.02 5.66 22 6 C21.34 5.67 20.68 5.34 20 5 C17.942 4.658 15.879 4.35 13.812 4.062 C9.047 3.36 4.576 2.49 0 1 C0 0.67 0 0.34 0 0 Z " fill="#478FC4" transform="translate(302,167)"/>
<path d="M0 0 C2 1 2 1 2 1 Z M2 1 C6.965 1.817 11.92 2.685 16.875 3.562 C17.659 3.701 18.442 3.84 19.25 3.982 C21.167 4.321 23.083 4.661 25 5 C24.67 5.66 24.34 6.32 24 7 C16.571 7.487 10.76 6.166 4 3 C3.34 2.34 2.68 1.68 2 1 Z " fill="#4A92C6" transform="translate(290,135)"/>
<path d="M0 0 C0.66 0.33 1.32 0.66 2 1 C-5.07 5.874 -12.176 9.679 -21 9 C-17.356 6.571 -15.288 6.838 -11 7 C-10.67 6.01 -10.34 5.02 -10 4 C-6.717 2.419 -3.455 1.152 0 0 Z " fill="#579BCC" transform="translate(440,99)"/>
<path d="M0 0 C0.33 0 0.66 0 1 0 C1.098 0.617 1.196 1.235 1.297 1.871 C2.396 8.095 4.273 13.323 7 19 C7.678 20.662 8.352 22.326 9 24 C5.943 22.961 5.089 22.163 3.516 19.277 C0.96 12.534 -0.612 7.216 0 0 Z " fill="#5596C5" transform="translate(222,480)"/>
<path d="M0 0 C0.66 0.33 1.32 0.66 2 1 C1.35 1.557 1.35 1.557 0.688 2.125 C-2.539 5.71 -4.185 9.249 -4.312 14.062 C-4.035 17.563 -3.554 19.893 -2 23 C-5.543 20.165 -6.889 18.752 -7.562 14.188 C-7.27 9.65 -5.602 5.708 -3 2 C-2.01 1.34 -1.02 0.68 0 0 Z " fill="#5194C3" transform="translate(219,400)"/>
<path d="M0 0 C0.799 0.009 1.598 0.018 2.422 0.027 C3.025 0.039 3.628 0.051 4.25 0.062 C0.713 1.992 -2.605 2.747 -6.531 3.5 C-8.872 4.093 -10.707 4.772 -12.75 6.062 C-13.08 7.053 -13.41 8.043 -13.75 9.062 C-14.41 8.733 -15.07 8.402 -15.75 8.062 C-14.292 4.218 -12.385 2.88 -8.75 1.062 C-5.768 0.139 -3.114 -0.046 0 0 Z M-17.75 8.062 C-16.76 8.558 -16.76 8.558 -15.75 9.062 C-16.74 9.558 -16.74 9.558 -17.75 10.062 C-17.75 9.402 -17.75 8.742 -17.75 8.062 Z " fill="#5EA0CF" transform="translate(231.75,10.9375)"/>
<path d="M0 0 C1.088 0.008 1.088 0.008 2.198 0.017 C4.501 0.039 6.803 0.09 9.105 0.141 C10.673 0.161 12.24 0.179 13.807 0.195 C17.636 0.239 21.464 0.308 25.293 0.391 C25.293 0.721 25.293 1.051 25.293 1.391 C24.339 1.405 23.386 1.42 22.403 1.435 C18.864 1.493 15.325 1.57 11.786 1.653 C10.254 1.686 8.723 1.714 7.191 1.737 C4.989 1.771 2.788 1.823 0.586 1.879 C-0.099 1.885 -0.783 1.892 -1.488 1.898 C-4.457 1.99 -6.282 2.058 -8.663 3.923 C-9.007 4.407 -9.352 4.891 -9.707 5.391 C-10.697 5.061 -11.687 4.731 -12.707 4.391 C-8.643 0.413 -5.482 -0.163 0 0 Z " fill="#65A2C9" transform="translate(275.70703125,165.609375)"/>
<path d="M0 0 C1.25 1.562 1.25 1.562 2 4 C-0.828 10.734 -6.047 15.74 -11 21 C-11 16.3 -7.536 13.4 -4.643 9.914 C-2.025 6.659 -0.371 4.21 0 0 Z " fill="#5698CA" transform="translate(260,418)"/>
<path d="M0 0 C0.66 0 1.32 0 2 0 C2.121 0.641 2.242 1.281 2.367 1.941 C3.357 7.049 4.485 12.023 6 17 C5.34 17.66 4.68 18.32 4 19 C0.901 12.374 -0.473 7.326 0 0 Z " fill="#5298C8" transform="translate(163,256)"/>
<path d="M0 0 C2.241 0.398 4.469 0.87 6.688 1.375 C11.114 2.375 15.516 3.297 20 4 C20 4.66 20 5.32 20 6 C13.409 6.449 7.257 5.07 1 3 C0.34 2.34 -0.32 1.68 -1 1 C-0.67 0.67 -0.34 0.34 0 0 Z " fill="#4D91C3" transform="translate(255,139)"/>
<path d="M0 0 C6.6 0 13.2 0 20 0 C20.33 0.66 20.66 1.32 21 2 C14.864 5.068 6.255 2.888 0 1 C0 0.67 0 0.34 0 0 Z " fill="#4B93C6" transform="translate(356,125)"/>
<path d="M0 0 C4.315 4.315 4.125 11.256 4.125 17.062 C4.093 18.709 4.055 20.355 4 22 C3.34 22 2.68 22 2 22 C1.939 21.192 1.879 20.384 1.816 19.551 C1.733 18.482 1.649 17.414 1.562 16.312 C1.481 15.257 1.4 14.201 1.316 13.113 C1.035 10.347 0.559 7.719 0 5 C-0.037 3.334 -0.048 1.666 0 0 Z " fill="#478ABB" transform="translate(248,453)"/>
<path d="M0 0 C11.344 0.576 11.344 0.576 16 4 C16.907 4.33 17.815 4.66 18.75 5 C19.864 5.495 19.864 5.495 21 6 C21.33 6.99 21.66 7.98 22 9 C17.154 7.425 12.39 5.676 7.625 3.875 C6.521 3.459 6.521 3.459 5.395 3.035 C3.596 2.358 1.798 1.679 0 1 C0 0.67 0 0.34 0 0 Z " fill="#589BCB" transform="translate(218,309)"/>
<path d="M0 0 C0.66 0.33 1.32 0.66 2 1 C0.875 2.938 0.875 2.938 -1 5 C-4.188 5.75 -4.188 5.75 -7 6 C-7.33 6.99 -7.66 7.98 -8 9 C-8.784 9.144 -9.567 9.289 -10.375 9.438 C-12.964 9.878 -12.964 9.878 -15 11 C-15.66 10.34 -16.32 9.68 -17 9 C-15.845 8.423 -14.69 7.845 -13.5 7.25 C-12.777 6.888 -12.054 6.526 -11.309 6.152 C-9.782 5.39 -8.253 4.632 -6.723 3.879 C-3.124 2.294 -3.124 2.294 0 0 Z " fill="#2478B9" transform="translate(263,282)"/>
<path d="M0 0 C0.33 0 0.66 0 1 0 C1.66 5.28 2.32 10.56 3 16 C2.01 16 1.02 16 0 16 C-1.085 12.745 -1.133 10.295 -1.125 6.875 C-1.128 5.8 -1.13 4.725 -1.133 3.617 C-1 1 -1 1 0 0 Z " fill="#3582BC" transform="translate(212,25)"/>
<path d="M0 0 C3.81 0.953 5.269 1.727 8.25 4.062 C8.956 4.61 9.663 5.158 10.391 5.723 C11.187 6.355 11.187 6.355 12 7 C11.34 7.66 10.68 8.32 10 9 C7.36 7.02 4.72 5.04 2 3 C1.67 7.62 1.34 12.24 1 17 C0.67 17 0.34 17 0 17 C0 11.39 0 5.78 0 0 Z " fill="#5899C8" transform="translate(225,392)"/>
<path d="M0 0 C7.698 0.796 15.344 1.878 23 3 C23 3.33 23 3.66 23 4 C15.573 4.103 8.365 3.999 1 3 C0.67 2.01 0.34 1.02 0 0 Z " fill="#569BCA" transform="translate(171,212)"/>
<path d="M0 0 C2.97 0 5.94 0 9 0 C2.713 4.191 -5.521 5.51 -13 5 C-13 4.34 -13 3.68 -13 3 C-10.085 2.204 -7.254 1.747 -4.25 1.438 C-3.051 1.312 -3.051 1.312 -1.828 1.184 C-1.225 1.123 -0.622 1.062 0 1 C0 0.67 0 0.34 0 0 Z " fill="#5FA1CF" transform="translate(201,140)"/>
<path d="M0 0 C0 0.33 0 0.66 0 1 C-9.341 1.613 -18.633 2.182 -28 2 C-27.67 1.34 -27.34 0.68 -27 0 C-18.109 -1.778 -8.978 -0.63 0 0 Z " fill="#438CC2" transform="translate(321,181)"/>
<path d="M0 0 C3.617 0.581 6.424 1.536 9.625 3.312 C10.38 3.721 11.136 4.13 11.914 4.551 C14.223 6.155 15.596 7.564 17 10 C16.67 10.99 16.34 11.98 16 13 C14.5 11.625 14.5 11.625 13 10 C13 9.34 13 8.68 13 8 C10.525 7.01 10.525 7.01 8 6 C8 5.34 8 4.68 8 4 C7.237 3.711 6.474 3.423 5.688 3.125 C3 2 3 2 0 0 Z " fill="#5599C9" transform="translate(257,243)"/>
<path d="M0 0 C1.938 0.375 1.938 0.375 4 1 C5.435 3.87 5.112 6.335 5.098 9.539 C5.094 10.841 5.091 12.143 5.088 13.484 C5.08 14.865 5.071 16.245 5.062 17.625 C5.057 19.013 5.053 20.401 5.049 21.789 C5.037 25.193 5.021 28.596 5 32 C4.67 32 4.34 32 4 32 C3.978 30.759 3.978 30.759 3.956 29.493 C3.881 25.745 3.785 21.998 3.688 18.25 C3.665 16.948 3.642 15.646 3.619 14.305 C3.584 13.054 3.548 11.804 3.512 10.516 C3.486 9.364 3.459 8.211 3.432 7.024 C2.969 3.781 2.192 2.379 0 0 Z " fill="#387EB1" transform="translate(217,46)"/>
<path d="M0 0 C0.33 0 0.66 0 1 0 C1.33 5.61 1.66 11.22 2 17 C3.32 16.01 4.64 15.02 6 14 C4.375 19.75 4.375 19.75 1 22 C0 21 0 21 -0.114 18.959 C-0.108 18.084 -0.103 17.21 -0.098 16.309 C-0.094 15.364 -0.091 14.42 -0.088 13.447 C-0.08 12.454 -0.071 11.461 -0.062 10.438 C-0.058 9.44 -0.053 8.443 -0.049 7.416 C-0.037 4.944 -0.021 2.472 0 0 Z " fill="#90C0DD" transform="translate(240,480)"/>
<path d="M0 0 C0.33 0 0.66 0 1 0 C1 4.62 1 9.24 1 14 C2.32 14.66 3.64 15.32 5 16 C7.75 17.5 7.75 17.5 10 19 C10 19.66 10 20.32 10 21 C6.672 20.616 3.76 19.22 1.195 17.074 C-1.575 12.268 -0.366 5.39 0 0 Z " fill="#5898C6" transform="translate(225,350)"/>
<path d="M0 0 C0.99 0.33 1.98 0.66 3 1 C2.469 1.459 1.938 1.918 1.391 2.391 C-2.183 5.495 -5.719 8.582 -9 12 C-9.33 11.34 -9.66 10.68 -10 10 C-7.269 5.379 -4.873 2.592 0 0 Z " fill="#1F77BA" transform="translate(206,310)"/>
<path d="M0 0 C0.888 0.014 1.776 0.027 2.691 0.041 C4.878 0.076 7.064 0.126 9.25 0.188 C9.25 0.518 9.25 0.847 9.25 1.188 C7.73 1.244 7.73 1.244 6.18 1.301 C4.828 1.366 3.477 1.433 2.125 1.5 C1.127 1.534 1.127 1.534 0.109 1.568 C-4.511 1.817 -7.826 2.736 -11.75 5.188 C-12.41 6.178 -13.07 7.167 -13.75 8.188 C-14 5.875 -14 5.875 -13.75 3.188 C-10.145 -1.058 -5.091 -0.147 0 0 Z " fill="#5797C5" transform="translate(148.75,180.8125)"/>
<path d="M0 0 C0.66 0.33 1.32 0.66 2 1 C-2.53 5.118 -6.802 6.864 -12.938 7.125 C-13.618 7.084 -14.299 7.042 -15 7 C-15 6.34 -15 5.68 -15 5 C-14.004 4.71 -14.004 4.71 -12.988 4.414 C-7.425 2.781 -7.425 2.781 -2 0.75 C-1.34 0.502 -0.68 0.255 0 0 Z " fill="#3E8BC3" transform="translate(307,206)"/>
<path d="M0 0 C0.33 0 0.66 0 1 0 C1 8.25 1 16.5 1 25 C-0.65 25.66 -2.3 26.32 -4 27 C-3.34 25.35 -2.68 23.7 -2 22 C-1.67 22 -1.34 22 -1 22 C-0.67 14.74 -0.34 7.48 0 0 Z " fill="#6DA8D3" transform="translate(217,113)"/>
<path d="M0 0 C0 0.33 0 0.66 0 1 C-2.31 1.66 -4.62 2.32 -7 3 C-6.835 3.743 -6.67 4.485 -6.5 5.25 C-6 8 -6 8 -6 12 C-8.613 10.694 -8.972 9.716 -10 7 C-10.125 3.75 -10.125 3.75 -10 1 C-6.785 -0.607 -3.564 -0.057 0 0 Z " fill="#5B9BCA" transform="translate(20,80)"/>
<path d="M0 0 C0.66 0 1.32 0 2 0 C2.054 2.438 2.094 4.874 2.125 7.312 C2.142 8.003 2.159 8.693 2.176 9.404 C2.212 13.171 2.144 14.784 0 18 C-0.904 11.674 -0.904 6.326 0 0 Z " fill="#5C99C7" transform="translate(236,470)"/>
<path d="M0 0 C-2.323 2.323 -4.451 3.269 -7.438 4.625 C-8.406 5.071 -9.374 5.517 -10.371 5.977 C-13 7 -13 7 -16 7 C-16 6.34 -16 5.68 -16 5 C-14.68 5 -13.36 5 -12 5 C-12 4.34 -12 3.68 -12 3 C-8.44 -0.856 -4.901 -0.245 0 0 Z " fill="#3C8AC3" transform="translate(314,220)"/>
<path d="M0 0 C0.66 0 1.32 0 2 0 C3.007 2.268 4.006 4.539 5 6.812 C5.429 7.776 5.429 7.776 5.867 8.76 C7.137 11.678 8 13.783 8 17 C4.314 14.543 4.293 13.123 3 9 C2.464 8.134 1.928 7.267 1.375 6.375 C0 4 0 4 0 0 Z " fill="#5395C6" transform="translate(189,69)"/>
<path d="M0 0 C4.95 0.33 9.9 0.66 15 1 C15 1.66 15 2.32 15 3 C15.66 3.33 16.32 3.66 17 4 C11.147 3.485 5.67 2.546 0 1 C0 0.67 0 0.34 0 0 Z " fill="#5499CD" transform="translate(175,230)"/>
<path d="M0 0 C2.272 0.087 4.542 0.195 6.812 0.312 C8.077 0.371 9.342 0.429 10.645 0.488 C14 1 14 1 15.949 2.543 C16.296 3.024 16.643 3.505 17 4 C14.372 4 11.918 3.802 9.312 3.5 C8.504 3.407 7.696 3.314 6.863 3.219 C6.248 3.147 5.634 3.074 5 3 C5 2.34 5 1.68 5 1 C3.35 1 1.7 1 0 1 C0 0.67 0 0.34 0 0 Z " fill="#468FC5" transform="translate(181,165)"/>
<path d="M0 0 C2.214 3.795 3.01 7.756 4 12 C4.33 12 4.66 12 5 12 C5 13.65 5 15.3 5 17 C1.868 14.437 0.954 11.891 0 8 C-0.15 5.307 -0.093 2.701 0 0 Z " fill="#498FC3" transform="translate(214,479)"/>
<path d="M0 0 C1 3 1 3 -0.215 5.918 C-0.783 6.997 -1.352 8.076 -1.938 9.188 C-2.503 10.274 -3.069 11.361 -3.652 12.48 C-4.319 13.728 -4.319 13.728 -5 15 C-5.66 15 -6.32 15 -7 15 C-6.49 10.535 -4.818 8.415 -2 5 C-0.76 2.321 -0.76 2.321 0 0 Z " fill="#66A6D4" transform="translate(273,347)"/>
<path d="M0 0 C4.63 3.087 7.252 6.755 9 12 C8.67 12.66 8.34 13.32 8 14 C5.452 12.726 5.181 11.614 4 9.062 C2.816 6.514 2.012 5.012 0 3 C0 2.01 0 1.02 0 0 Z " fill="#4E93C5" transform="translate(265,317)"/>
<path d="M0 0 C2 1 2 1 2 1 Z M2 1 C8.93 3.97 8.93 3.97 16 7 C15.01 7.66 14.02 8.32 13 9 C11.348 8.242 9.704 7.468 8.062 6.688 C7.146 6.258 6.229 5.829 5.285 5.387 C3 4 3 4 2 1 Z " fill="#5197C9" transform="translate(198,282)"/>
<path d="M0 0 C4.62 0.66 9.24 1.32 14 2 C13.67 2.66 13.34 3.32 13 4 C11.584 4.054 10.167 4.093 8.75 4.125 C7.961 4.148 7.172 4.171 6.359 4.195 C3.793 3.983 2.208 3.287 0 2 C0 1.34 0 0.68 0 0 Z " fill="#3382BE" transform="translate(190,231)"/>
<path d="M0 0 C4.29 0 8.58 0 13 0 C13 0.33 13 0.66 13 1 C10.69 1 8.38 1 6 1 C6.33 1.99 6.66 2.98 7 4 C4.69 3.67 2.38 3.34 0 3 C0 2.01 0 1.02 0 0 Z " fill="#5998C5" transform="translate(255,216)"/>
<path d="M0 0 C-0.99 0 -1.98 0 -3 0 C-3.33 0.99 -3.66 1.98 -4 3 C-5.279 3.144 -6.558 3.289 -7.875 3.438 C-10.257 3.706 -11.845 3.922 -14 5 C-14.66 4.34 -15.32 3.68 -16 3 C-14.088 2.3 -12.17 1.615 -10.25 0.938 C-9.183 0.555 -8.115 0.172 -7.016 -0.223 C-4.077 -0.98 -2.777 -1.072 0 0 Z " fill="#62A3D0" transform="translate(146,170)"/>
<path d="M0 0 C-5.369 3.852 -8.54 4.331 -15.059 3.359 C-15.699 3.241 -16.34 3.122 -17 3 C-17 2.67 -17 2.34 -17 2 C-14.543 1.471 -12.085 0.951 -9.625 0.438 C-8.926 0.286 -8.228 0.135 -7.508 -0.021 C-2.227 -1.113 -2.227 -1.113 0 0 Z " fill="#65A8D3" transform="translate(75,83)"/>
<path d="M0 0 C0 6.626 -3.143 10.925 -7 16 C-7.33 15.34 -7.66 14.68 -8 14 C-6.946 11.736 -5.849 9.607 -4.625 7.438 C-4.295 6.835 -3.965 6.232 -3.625 5.611 C-1.176 1.176 -1.176 1.176 0 0 Z " fill="#5E9CC8" transform="translate(279,58)"/>
<path d="M0 0 C4.875 4.75 4.875 4.75 6 7 C4.02 7.66 2.04 8.32 0 9 C0 6.03 0 3.06 0 0 Z " fill="#0A6EBD" transform="translate(227,454)"/>
<path d="M0 0 C4.29 0 8.58 0 13 0 C13 0.99 13 1.98 13 3 C8.71 2.67 4.42 2.34 0 2 C0 1.34 0 0.68 0 0 Z " fill="#438BC1" transform="translate(227,212)"/>
<path d="M0 0 C3.63 0 7.26 0 11 0 C11.33 0.99 11.66 1.98 12 3 C11.157 2.988 10.314 2.977 9.445 2.965 C8.35 2.956 7.254 2.947 6.125 2.938 C4.489 2.92 4.489 2.92 2.82 2.902 C0.048 2.803 0.048 2.803 -2 4 C-1.34 2.68 -0.68 1.36 0 0 Z " fill="#418CC3" transform="translate(295,45)"/>
<path d="M0 0 C1.32 0.33 2.64 0.66 4 1 C0.04 4.465 0.04 4.465 -4 8 C-4.33 6.68 -4.66 5.36 -5 4 C-2.75 1.938 -2.75 1.938 0 0 Z " fill="#448CC2" transform="translate(128,174)"/>
<path d="M0 0 C2.468 1.152 4.048 2.048 6 4 C4.35 4.33 2.7 4.66 1 5 C0.67 7.31 0.34 9.62 0 12 C-0.33 12 -0.66 12 -1 12 C-1.027 10.188 -1.046 8.375 -1.062 6.562 C-1.074 5.553 -1.086 4.544 -1.098 3.504 C-1 1 -1 1 0 0 Z " fill="#75B2D5" transform="translate(227,515)"/>
<path d="M0 0 C5.571 5.143 5.571 5.143 6 9 C3.114 8.602 2.178 8.21 0.25 5.938 C-0.162 5.298 -0.575 4.659 -1 4 C-0.34 4 0.32 4 1 4 C0.67 2.68 0.34 1.36 0 0 Z M-3 3 C-1 4 -1 4 -1 4 Z " fill="#64A1C9" transform="translate(234,510)"/>
<path d="M0 0 C7.211 0.68 7.211 0.68 10 4 C12.1 5.176 12.1 5.176 14 6 C13.01 6.495 13.01 6.495 12 7 C9.18 5.785 9.18 5.785 5.875 4.062 C4.779 3.497 3.684 2.931 2.555 2.348 C1.712 1.903 0.869 1.458 0 1 C0 0.67 0 0.34 0 0 Z " fill="#5E9ECB" transform="translate(142,216)"/>
<path d="M0 0 C0.888 0.307 0.888 0.307 1.793 0.621 C5.837 2 9.769 3.318 14 4 C11.64 5.485 10.478 6.073 7.676 5.645 C6.896 5.37 6.116 5.095 5.312 4.812 C4.525 4.551 3.737 4.289 2.926 4.02 C1 3 1 3 0 0 Z " fill="#408AC0" transform="translate(154,206)"/>
<path d="M0 0 C4.972 1.492 9.418 3.605 14 6 C14 6.33 14 6.66 14 7 C9.677 7.371 7.569 6.379 4 4 C2.674 3.319 1.343 2.647 0 2 C0 1.34 0 0.68 0 0 Z " fill="#458EC4" transform="translate(329,56)"/>
<path d="M0 0 C2 1 2 1 2 1 Z M2 1 C6.435 2.394 8.874 4.606 12 8 C11.01 8.495 11.01 8.495 10 9 C6.274 7.758 4.607 5.889 2 3 C2 2.34 2 1.68 2 1 Z " fill="#4C94C9" transform="translate(210,434)"/>
<path d="M0 0 C1.114 0.712 1.114 0.712 2.25 1.438 C4.611 2.779 6.366 3.512 9 4 C9 4.66 9 5.32 9 6 C11.97 6.495 11.97 6.495 15 7 C12.493 7.904 11.283 8.092 8.711 7.258 C7.555 6.697 7.555 6.697 6.375 6.125 C5.211 5.572 5.211 5.572 4.023 5.008 C2.682 4.34 1.341 3.67 0 3 C0 2.01 0 1.02 0 0 Z " fill="#5699C7" transform="translate(224,287)"/>
<path d="M0 0 C0.99 0.33 1.98 0.66 3 1 C2.34 1 1.68 1 1 1 C1 1.66 1 2.32 1 3 C-0.207 3.402 -0.207 3.402 -1.438 3.812 C-2.283 4.204 -3.129 4.596 -4 5 C-4.33 5.99 -4.66 6.98 -5 8 C-6.65 8 -8.3 8 -10 8 C-7.375 5.084 -4.271 3.134 -1 1 C-0.67 0.67 -0.34 0.34 0 0 Z " fill="#5696C5" transform="translate(286,135)"/>
<path d="M0 0 C1.125 3.75 1.125 3.75 0 6 C-0.99 6 -1.98 6 -3 6 C-3.33 6.99 -3.66 7.98 -4 9 C-6.562 10.688 -6.562 10.688 -9 12 C-7.439 7.784 -4.381 5.806 -1 3 C-0.67 2.01 -0.34 1.02 0 0 Z " fill="#5A9AC6" transform="translate(220,315)"/>
<path d="M0 0 C3.848 0.55 5.353 2.27 8 5 C10.133 6.235 10.133 6.235 12 7 C12 7.66 12 8.32 12 9 C7.092 7.513 3.595 4.554 0 1 C0 0.67 0 0.34 0 0 Z " fill="#5294C6" transform="translate(180,288)"/>
<path d="M0 0 C-1.967 1.967 -3.544 2.937 -6 4.188 C-6.701 4.552 -7.402 4.917 -8.125 5.293 C-8.744 5.526 -9.363 5.76 -10 6 C-10.66 5.67 -11.32 5.34 -12 5 C-8.25 2 -8.25 2 -6 2 C-6 1.34 -6 0.68 -6 0 C-3.509 -1.245 -2.589 -0.777 0 0 Z " fill="#5C9BC8" transform="translate(293,184)"/>
<path d="M0 0 C0.33 0 0.66 0 1 0 C1 2.64 1 5.28 1 8 C0.67 8 0.34 8 0 8 C0 5.36 0 2.72 0 0 Z M1 8 C1.928 8.165 2.856 8.33 3.812 8.5 C6.956 9.077 6.956 9.077 10 9 C8.515 10.485 8.515 10.485 7 12 C5.02 11.34 3.04 10.68 1 10 C1 9.34 1 8.68 1 8 Z " fill="#619DC9" transform="translate(242,368)"/>
<path d="M0 0 C3.809 1.445 5.297 3.326 7 7 C6.67 7.99 6.34 8.98 6 10 C4.994 8.713 3.996 7.42 3 6.125 C2.443 5.406 1.886 4.686 1.312 3.945 C0 2 0 2 0 0 Z " fill="#6DA8D3" transform="translate(202,422)"/>
<path d="M0 0 C0.33 0.66 0.66 1.32 1 2 C0.328 3.91 0.328 3.91 -0.75 6.062 C-1.268 7.132 -1.268 7.132 -1.797 8.223 C-3 10 -3 10 -6 11 C-4.55 6.89 -2.489 3.567 0 0 Z " fill="#579CCA" transform="translate(196,318)"/>
<path d="M0 0 C0.33 0 0.66 0 1 0 C1.99 4.62 2.98 9.24 4 14 C-0.684 9.316 -0.684 9.316 -1 5 C-0.562 2.188 -0.562 2.188 0 0 Z " fill="#599BC9" transform="translate(186,260)"/>
<path d="M0 0 C-0.33 0.66 -0.66 1.32 -1 2 C-3.066 2.414 -3.066 2.414 -5.562 2.625 C-6.389 2.7 -7.215 2.775 -8.066 2.852 C-9.024 2.925 -9.024 2.925 -10 3 C-8.013 -0.974 -3.918 -0.087 0 0 Z M0 1 C1 5 1 5 1 5 Z " fill="#5095C6" transform="translate(80,113)"/>
<path d="M0 0 C1.418 0.454 2.834 0.914 4.25 1.375 C5.433 1.758 5.433 1.758 6.641 2.148 C8.866 2.952 10.909 3.897 13 5 C8.521 5.176 4.974 5.221 1 3 C0.67 2.01 0.34 1.02 0 0 Z " fill="#6AA9D4" transform="translate(369,75)"/>
<path d="M0 0 C0.66 0 1.32 0 2 0 C2.66 2.31 3.32 4.62 4 7 C2.125 6.75 2.125 6.75 0 6 C-1.25 3.938 -1.25 3.938 -2 2 C-1.34 2 -0.68 2 0 2 C0 1.34 0 0.68 0 0 Z " fill="#0E6CB6" transform="translate(229,504)"/>
<path d="M0 0 C0.66 0 1.32 0 2 0 C2 0.66 2 1.32 2 2 C2.897 2.371 2.897 2.371 3.812 2.75 C6.286 4.164 7.434 5.651 9 8 C8.67 8.66 8.34 9.32 8 10 C6.848 8.902 5.704 7.797 4.562 6.688 C3.924 6.073 3.286 5.458 2.629 4.824 C1 3 1 3 0 0 Z " fill="#549AC8" transform="translate(198,169)"/>
<path d="M0 0 C0.99 0 1.98 0 3 0 C1.559 3.362 -0.248 5.592 -3 8 C-3.66 8 -4.32 8 -5 8 C-3.63 5.05 -2.174 2.435 0 0 Z " fill="#5395C7" transform="translate(351,128)"/>
<path d="M0 0 C4.921 -0.167 8.503 -0.248 13 2 C13 2.33 13 2.66 13 3 C8.079 3.167 4.497 3.248 0 1 C0 0.67 0 0.34 0 0 Z " fill="#3C87BC" transform="translate(383,113)"/>
<path d="M0 0 C2.341 3.511 2.707 5.82 3 10 C2.34 11.32 1.68 12.64 1 14 C0.67 9.38 0.34 4.76 0 0 Z " fill="#569ACA" transform="translate(250,23)"/>
<path d="M0 0 C0.955 2.17 1.144 3.563 0.398 5.824 C-0.359 7.568 -1.176 9.286 -2 11 C-2.66 11 -3.32 11 -4 11 C-3.393 6.872 -1.962 3.668 0 0 Z " fill="#5B9AC8" transform="translate(204,396)"/>
<path d="M0 0 C3.796 0.542 5.472 2.201 8 5 C7.67 5.66 7.34 6.32 7 7 C3.429 5.121 1.453 3.829 0 0 Z " fill="#468CC1" transform="translate(257,310)"/>
<path d="M0 0 C4.29 0.66 8.58 1.32 13 2 C13 2.33 13 2.66 13 3 C11.543 3.195 10.084 3.381 8.625 3.562 C7.813 3.667 7.001 3.771 6.164 3.879 C4 4 4 4 2 3 C2 2.34 2 1.68 2 1 C1.34 0.67 0.68 0.34 0 0 Z " fill="#65A4D0" transform="translate(26,83)"/>
<path d="M0 0 C0.66 0 1.32 0 2 0 C3.373 1.973 4.704 3.975 6 6 C6.66 6.66 7.32 7.32 8 8 C7.67 8.99 7.34 9.98 7 11 C6.016 9.733 5.038 8.461 4.062 7.188 C3.517 6.48 2.972 5.772 2.41 5.043 C1 3 1 3 0 0 Z " fill="#63A2CB" transform="translate(219,497)"/>
<path d="M0 0 C0.99 0.495 0.99 0.495 2 1 C1.67 1.66 1.34 2.32 1 3 C0.67 2.01 0.34 1.02 0 0 Z M2 3 C2.99 3.33 3.98 3.66 5 4 C5 4.66 5 5.32 5 6 C5.66 6 6.32 6 7 6 C7 6.66 7 7.32 7 8 C7.66 8.33 8.32 8.66 9 9 C6 9 6 9 3.812 7.125 C2 5 2 5 2 3 Z " fill="#6EA7CC" transform="translate(210,356)"/>
<path d="M0 0 C0.99 0.33 1.98 0.66 3 1 C0.808 2.948 -0.568 3.935 -3.5 4.375 C-6.432 3.935 -7.808 2.948 -10 1 C-7.982 1.326 -5.964 1.651 -3.945 1.977 C-2.982 1.988 -2.982 1.988 -2 2 C-1.34 1.34 -0.68 0.68 0 0 Z " fill="#589BC9" transform="translate(261,300)"/>
<path d="M0 0 C0.66 0.33 1.32 0.66 2 1 C1 2.938 1 2.938 -1 5 C-3.699 5.665 -6.206 5.817 -9 6 C-6 4 -3 2 0 0 Z " fill="#75AED5" transform="translate(263,282)"/>
<path d="M0 0 C1.98 0.99 3.96 1.98 6 3 C6 3.66 6 4.32 6 5 C6.66 5.33 7.32 5.66 8 6 C7.01 6.33 6.02 6.66 5 7 C3.291 5.377 1.626 3.707 0 2 C0 1.34 0 0.68 0 0 Z " fill="#5195C7" transform="translate(282,233)"/>
<path d="M0 0 C2.252 2.688 3.882 4.646 5 8 C4.01 8 3.02 8 2 8 C0 6 0 6 -0.125 2.875 C-0.084 1.926 -0.043 0.977 0 0 Z " fill="#4890C6" transform="translate(123,194)"/>
<path d="M0 0 C1.207 0.031 1.207 0.031 2.438 0.062 C2.438 0.722 2.438 1.382 2.438 2.062 C3.098 2.393 3.757 2.722 4.438 3.062 C3.489 3.001 2.54 2.939 1.562 2.875 C0.016 2.968 0.016 2.968 -1.562 3.062 C-2.223 4.053 -2.882 5.042 -3.562 6.062 C-3.605 4.396 -3.603 2.729 -3.562 1.062 C-2.562 0.062 -2.562 0.062 0 0 Z " fill="#5BA0CD" transform="translate(323.5625,131.9375)"/>
<path d="M0 0 C1.439 0.453 2.876 0.912 4.312 1.375 C5.113 1.63 5.914 1.885 6.738 2.148 C9 3 9 3 12 5 C6.722 5.503 4.138 4.251 0 1 C0 0.67 0 0.34 0 0 Z " fill="#5FA0CD" transform="translate(357,70)"/>
<path d="M0 0 C3.788 0.526 6.172 1.381 9 4 C9 4.66 9 5.32 9 6 C5.888 4.502 2.912 2.86 0 1 C0 0.67 0 0.34 0 0 Z " fill="#478EC1" transform="translate(172,49)"/>
<path d="M0 0 C0.66 0 1.32 0 2 0 C5 5.75 5 5.75 5 8 C3.062 7.375 3.062 7.375 1 6 C0.25 2.875 0.25 2.875 0 0 Z " fill="#448DC0" transform="translate(226,496)"/>
<path d="M0 0 C3.006 3.006 2.596 5.824 3 10 C2.34 10 1.68 10 1 10 C0.222 6.594 -0.1 3.492 0 0 Z " fill="#569AC8" transform="translate(248,453)"/>
<path d="M0 0 C1.25 1.562 1.25 1.562 2 4 C0.932 6.57 -0.465 8.653 -2 11 C-2.33 10.01 -2.66 9.02 -3 8 C-2.34 7.01 -1.68 6.02 -1 5 C-0.615 3.345 -0.272 1.678 0 0 Z " fill="#5396C5" transform="translate(260,418)"/>
<path d="M0 0 C0.99 0.33 1.98 0.66 3 1 C-1.75 5 -1.75 5 -4 5 C-4.33 5.66 -4.66 6.32 -5 7 C-5 6.01 -5 5.02 -5 4 C-2.688 1.75 -2.688 1.75 0 0 Z " fill="#5F9DC8" transform="translate(195,246)"/>
<path d="M0 0 C0.66 0.66 1.32 1.32 2 2 C1.34 2 0.68 2 0 2 C0 1.34 0 0.68 0 0 Z M3 3 C4.32 3.33 5.64 3.66 7 4 C7.33 5.32 7.66 6.64 8 8 C5.5 6.625 5.5 6.625 3 5 C3 4.34 3 3.68 3 3 Z M8 8 C10 9 10 9 10 9 Z " fill="#74A9D1" transform="translate(14,92)"/>
<path d="M0 0 C0.66 0.33 1.32 0.66 2 1 C1.361 1.268 0.721 1.536 0.062 1.812 C-2.331 2.887 -2.331 2.887 -3 6 C-3.66 5.67 -4.32 5.34 -5 5 C-4 2 -4 2 -2.062 0.75 C-1.382 0.502 -0.701 0.255 0 0 Z M-7 5 C-6.01 5.495 -6.01 5.495 -5 6 C-5.99 6.495 -5.99 6.495 -7 7 C-7 6.34 -7 5.68 -7 5 Z " fill="#4590C7" transform="translate(221,14)"/>
<path d="M0 0 C2.31 1.98 4.62 3.96 7 6 C6.67 6.66 6.34 7.32 6 8 C4 6.625 4 6.625 2 5 C2 4.34 2 3.68 2 3 C1.01 2.67 0.02 2.34 -1 2 C-0.67 1.34 -0.34 0.68 0 0 Z " fill="#549CC9" transform="translate(236,392)"/>
<path d="M0 0 C0.66 0 1.32 0 2 0 C1.812 1.875 1.812 1.875 1 4 C-1.562 5.25 -1.562 5.25 -4 6 C-2.726 3.962 -1.389 1.961 0 0 Z " fill="#6DADD4" transform="translate(210,388)"/>
<path d="M0 0 C0.99 0.33 1.98 0.66 3 1 C3.33 3.31 3.66 5.62 4 8 C1.101 5.605 0.498 3.688 0 0 Z " fill="#448ABE" transform="translate(190,349)"/>
<path d="M0 0 C0.66 0.66 1.32 1.32 2 2 C-1.96 4.475 -1.96 4.475 -6 7 C-6 6.01 -6 5.02 -6 4 C-5.01 4 -4.02 4 -3 4 C-3 3.34 -3 2.68 -3 2 C-2.01 1.34 -1.02 0.68 0 0 Z " fill="#4A93C3" transform="translate(281,288)"/>
<path d="M0 0 C-1.293 2.884 -2.659 4.872 -5 7 C-5.33 6.01 -5.66 5.02 -6 4 C-2.25 0 -2.25 0 0 0 Z " fill="#5394C4" transform="translate(294,277)"/>
<path d="M0 0 C1.65 0 3.3 0 5 0 C5 0.99 5 1.98 5 3 C3.35 3.66 1.7 4.32 0 5 C0 3.35 0 1.7 0 0 Z " fill="#5495C4" transform="translate(202,239)"/>
<path d="M0 0 C0 0.33 0 0.66 0 1 C-0.949 1.289 -1.897 1.577 -2.875 1.875 C-6.052 2.768 -6.052 2.768 -8 5 C-8.99 4.67 -9.98 4.34 -11 4 C-7.263 0.483 -5.135 -0.478 0 0 Z " fill="#62A3CB" transform="translate(274,166)"/>
<path d="M0 0 C-3.334 2.191 -6.042 3.435 -10 4 C-6.878 0.566 -4.64 -1.547 0 0 Z " fill="#4B93C6" transform="translate(133,58)"/>
<path d="M0 0 C3 2 3 2 3.688 4.625 C3.842 5.801 3.842 5.801 4 7 C3.01 7.495 3.01 7.495 2 8 C0.235 4.912 0 3.767 0 0 Z " fill="#4990C6" transform="translate(258,396)"/>
<path d="M0 0 C0.66 0.33 1.32 0.66 2 1 C1.25 3.375 1.25 3.375 0 6 C-1.98 6.99 -1.98 6.99 -4 8 C-2.68 5.36 -1.36 2.72 0 0 Z " fill="#4C95C7" transform="translate(275,269)"/>
<path d="M0 0 C1.32 0.33 2.64 0.66 4 1 C3.67 1.66 3.34 2.32 3 3 C3.99 3.33 4.98 3.66 6 4 C5.01 4.33 4.02 4.66 3 5 C1.5 3.625 1.5 3.625 0 2 C0 1.34 0 0.68 0 0 Z " fill="#2E7EBC" transform="translate(261,217)"/>
<path d="M0 0 C0.66 0.33 1.32 0.66 2 1 C0.35 2.32 -1.3 3.64 -3 5 C-4.32 4.34 -5.64 3.68 -7 3 C-4.696 1.933 -2.36 0.936 0 0 Z " fill="#67A4D0" transform="translate(307,206)"/>
<path d="M0 0 C3.871 0.574 6.082 2.487 9 5 C8.01 5.33 7.02 5.66 6 6 C2.812 3.625 2.812 3.625 0 1 C0 0.67 0 0.34 0 0 Z " fill="#5EA0CF" transform="translate(142,200)"/>
<path d="M0 0 C1.32 0.99 2.64 1.98 4 3 C2.855 3.155 2.855 3.155 1.688 3.312 C-1.171 4.044 -2.157 4.77 -4 7 C-3.436 3.73 -2.5 2.174 0 0 Z " fill="#1C70B0" transform="translate(356,122)"/>
<path d="M0 0 C0.99 0 1.98 0 3 0 C3.33 2.31 3.66 4.62 4 7 C2 5.188 2 5.188 0 3 C0 2.01 0 1.02 0 0 Z " fill="#3384BF" transform="translate(236,455)"/>
<path d="M0 0 C1.562 1.75 1.562 1.75 3 4 C2.688 6.25 2.688 6.25 2 8 C0.438 5.688 0.438 5.688 -1 3 C-0.67 2.01 -0.34 1.02 0 0 Z " fill="#438EC5" transform="translate(195,356)"/>
<path d="M0 0 C3 3.75 3 3.75 3 6 C3.66 6 4.32 6 5 6 C4.34 7.32 3.68 8.64 3 10 C0 3.375 0 3.375 0 0 Z " fill="#64A5D3" transform="translate(164,265)"/>
<path d="M0 0 C0.66 0.66 1.32 1.32 2 2 C1.34 2 0.68 2 0 2 C0 1.34 0 0.68 0 0 Z M2 2 C3.65 3.65 5.3 5.3 7 7 C6.67 7.66 6.34 8.32 6 9 C2 4.25 2 4.25 2 2 Z " fill="#65A6D4" transform="translate(243,14)"/>
<path d="M0 0 C1.875 0.312 1.875 0.312 4 1 C4.66 1.99 5.32 2.98 6 4 C5.34 4.66 4.68 5.32 4 6 C2.68 4.02 1.36 2.04 0 0 Z " fill="#71A9D1" transform="translate(251,325)"/>
<path d="M0 0 C0 3.576 -1.088 5.053 -3 8 C-3.75 6.25 -3.75 6.25 -4 4 C-2.062 1.75 -2.062 1.75 0 0 Z " fill="#70A9CF" transform="translate(298,269)"/>
<path d="M0 0 C2.97 0.495 2.97 0.495 6 1 C6 1.66 6 2.32 6 3 C3.69 3 1.38 3 -1 3 C-0.67 2.01 -0.34 1.02 0 0 Z " fill="#61A9D4" transform="translate(269,142)"/>
<path d="M0 0 C0.66 0.99 1.32 1.98 2 3 C1.125 5.688 1.125 5.688 0 8 C-0.99 8 -1.98 8 -3 8 C-1.125 2.25 -1.125 2.25 0 0 Z " fill="#5695C4" transform="translate(270,75)"/>
<path d="M0 0 C0.66 0.33 1.32 0.66 2 1 C1.01 2.485 1.01 2.485 0 4 C-3.125 4.188 -3.125 4.188 -6 4 C-4.026 2.026 -2.563 1.041 0 0 Z " fill="#5A9DCE" transform="translate(92,75)"/>
<path d="M0 0 C0.66 0.66 1.32 1.32 2 2 C1.34 2 0.68 2 0 2 C0 1.34 0 0.68 0 0 Z M3 3 C5.475 3.99 5.475 3.99 8 5 C6.515 5.99 6.515 5.99 5 7 C4.34 5.68 3.68 4.36 3 3 Z " fill="#63A1CF" transform="translate(219,365)"/>
<path d="M0 0 C-0.66 1.32 -1.32 2.64 -2 4 C-2.99 4 -3.98 4 -5 4 C-4.67 3.01 -4.34 2.02 -4 1 C-2 0 -2 0 0 0 Z " fill="#609ECD" transform="translate(248,363)"/>
<path d="M0 0 C1.875 0.25 1.875 0.25 4 1 C5.25 3.062 5.25 3.062 6 5 C4.68 4.67 3.36 4.34 2 4 C2 3.34 2 2.68 2 2 C1.34 2 0.68 2 0 2 C0 1.34 0 0.68 0 0 Z " fill="#438CC4" transform="translate(246,320)"/>
<path d="M0 0 C2.31 0.33 4.62 0.66 7 1 C7.33 1.99 7.66 2.98 8 4 C5.648 3.401 3.314 2.731 1 2 C0.67 1.34 0.34 0.68 0 0 Z " fill="#6DAAD4" transform="translate(209,305)"/>
<path d="M0 0 C2.64 0.66 5.28 1.32 8 2 C6.25 3.125 6.25 3.125 4 4 C1.75 3.125 1.75 3.125 0 2 C0 1.34 0 0.68 0 0 Z " fill="#5398C8" transform="translate(261,224)"/>
<path d="M0 0 C1.98 0.99 3.96 1.98 6 3 C2.25 4.125 2.25 4.125 0 3 C0 2.01 0 1.02 0 0 Z " fill="#66A2D0" transform="translate(231,374)"/>
<path d="M0 0 C0.33 0.99 0.66 1.98 1 3 C0.01 4.485 0.01 4.485 -1 6 C-1.66 6 -2.32 6 -3 6 C-2.427 3.133 -2.139 2.139 0 0 Z " fill="#498BBC" transform="translate(269,356)"/>
<path d="M0 0 C1.108 3.325 0.845 5.622 0 9 C-0.33 9 -0.66 9 -1 9 C-1.625 5.625 -1.625 5.625 -2 2 C-1.34 1.34 -0.68 0.68 0 0 Z " fill="#1069AE" transform="translate(186,256)"/>
<path d="M0 0 C-3.465 1.485 -3.465 1.485 -7 3 C-7.66 2.34 -8.32 1.68 -9 1 C-5.574 -0.618 -3.619 -1.341 0 0 Z " fill="#4A90C4" transform="translate(156,48)"/>
<path d="M0 0 C0.99 0.33 1.98 0.66 3 1 C2.67 1.99 2.34 2.98 2 4 C1.34 3.67 0.68 3.34 0 3 C0 2.01 0 1.02 0 0 Z " fill="#5DA4D1" transform="translate(212,38)"/>
<path d="M0 0 C1.32 1.32 2.64 2.64 4 4 C3.67 4.66 3.34 5.32 3 6 C1.5 4.688 1.5 4.688 0 3 C0 2.01 0 1.02 0 0 Z " fill="#1168AC" transform="translate(244,449)"/>
<path d="M0 0 C0.33 1.32 0.66 2.64 1 4 C-0.98 4.99 -0.98 4.99 -3 6 C-2.01 4.02 -1.02 2.04 0 0 Z " fill="#73ABD2" transform="translate(256,351)"/>
<path d="M0 0 C0.66 0.66 1.32 1.32 2 2 C0.625 3.5 0.625 3.5 -1 5 C-1.66 5 -2.32 5 -3 5 C-1.125 1.125 -1.125 1.125 0 0 Z " fill="#3483BB" transform="translate(268,82)"/>
<path d="M0 0 C1.32 1.32 2.64 2.64 4 4 C3.67 4.66 3.34 5.32 3 6 C2.01 5.34 1.02 4.68 0 4 C0 2.68 0 1.36 0 0 Z " fill="#64A0CD" transform="translate(194,80)"/>
<path d="M0 0 C4.75 0.75 4.75 0.75 7 3 C4.625 3.188 4.625 3.188 2 3 C1.34 2.01 0.68 1.02 0 0 Z " fill="#4F97C6" transform="translate(336,60)"/>
<path d="M0 0 C1.5 1.312 1.5 1.312 3 3 C3 3.99 3 4.98 3 6 C2.34 6 1.68 6 1 6 C0.67 4.02 0.34 2.04 0 0 Z " fill="#5B9FC9" transform="translate(231,504)"/>
<path d="M0 0 C0.99 0 1.98 0 3 0 C3 0.99 3 1.98 3 3 C1.68 3.33 0.36 3.66 -1 4 C-0.67 2.68 -0.34 1.36 0 0 Z " fill="#1F6FAB" transform="translate(218,448)"/>
<path d="M0 0 C0.99 0.99 1.98 1.98 3 3 C2.67 3.99 2.34 4.98 2 6 C1.34 5.34 0.68 4.68 0 4 C0 2.68 0 1.36 0 0 Z " fill="#559ACD" transform="translate(206,426)"/>
<path d="M0 0 C-0.66 1.32 -1.32 2.64 -2 4 C-2.99 3.67 -3.98 3.34 -5 3 C-2.25 0 -2.25 0 0 0 Z " fill="#3785BC" transform="translate(275,293)"/>
<path d="M0 0 C1.98 0 3.96 0 6 0 C6.33 0.99 6.66 1.98 7 3 C4.69 2.34 2.38 1.68 0 1 C0 0.67 0 0.34 0 0 Z " fill="#4F97C9" transform="translate(158,224)"/>
<path d="M0 0 C1.32 0.99 2.64 1.98 4 3 C2.68 3.33 1.36 3.66 0 4 C-0.33 3.01 -0.66 2.02 -1 1 C-0.67 0.67 -0.34 0.34 0 0 Z " fill="#297BB9" transform="translate(178,185)"/>
<path d="M0 0 C0.66 1.32 1.32 2.64 2 4 C0.68 4.33 -0.64 4.66 -2 5 C-1.34 3.35 -0.68 1.7 0 0 Z " fill="#4791C6" transform="translate(215,135)"/>
<path d="M0 0 C1.32 0.33 2.64 0.66 4 1 C4 1.66 4 2.32 4 3 C2.68 2.67 1.36 2.34 0 2 C0 1.34 0 0.68 0 0 Z " fill="#3E89BE" transform="translate(231,368)"/>
<path d="M0 0 C1.98 0 3.96 0 6 0 C4.68 0.99 3.36 1.98 2 3 C1.34 2.67 0.68 2.34 0 2 C0 1.34 0 0.68 0 0 Z " fill="#549ACA" transform="translate(171,212)"/>
<path d="M0 0 C0.66 0.66 1.32 1.32 2 2 C0.02 2.99 0.02 2.99 -2 4 C-1.34 2.68 -0.68 1.36 0 0 Z M2 0 C4 1 4 1 4 1 Z " fill="#5B9DCF" transform="translate(323,212)"/>
<path d="M0 0 C1.65 0 3.3 0 5 0 C5 0.99 5 1.98 5 3 C2.525 2.01 2.525 2.01 0 1 C0 0.67 0 0.34 0 0 Z " fill="#5292C1" transform="translate(212,93)"/>
<path d="M0 0 C-1.32 0.99 -2.64 1.98 -4 3 C-4.99 2.34 -5.98 1.68 -7 1 C-4.537 -0.231 -2.72 -0.072 0 0 Z " fill="#73AFD6" transform="translate(86,79)"/>
<path d="M0 0 C1.32 0.33 2.64 0.66 4 1 C3.67 1.99 3.34 2.98 3 4 C2.01 2.68 1.02 1.36 0 0 Z " fill="#7AAFD6" transform="translate(217,46)"/>
<path d="M0 0 C1.938 0.375 1.938 0.375 4 1 C4.33 1.66 4.66 2.32 5 3 C3.062 2.625 3.062 2.625 1 2 C0.67 1.34 0.34 0.68 0 0 Z " fill="#4D95C6" transform="translate(216,424)"/>
<path d="M0 0 C0.99 0.33 1.98 0.66 3 1 C2.34 2.32 1.68 3.64 1 5 C0.67 3.35 0.34 1.7 0 0 Z " fill="#559DCE" transform="translate(190,349)"/>
<path d="M0 0 C2.475 0.495 2.475 0.495 5 1 C5 1.66 5 2.32 5 3 C2.525 2.01 2.525 2.01 0 1 C0 0.67 0 0.34 0 0 Z " fill="#75ABD2" transform="translate(187,294)"/>
<path d="M0 0 C0.66 0.33 1.32 0.66 2 1 C1.01 1.99 0.02 2.98 -1 4 C-1.66 3.34 -2.32 2.68 -3 2 C-2.01 1.34 -1.02 0.68 0 0 Z " fill="#5D9ECD" transform="translate(249,289)"/>
<path d="M0 0 C1.98 0.99 1.98 0.99 4 2 C3.34 2.66 2.68 3.32 2 4 C1.34 2.68 0.68 1.36 0 0 Z " fill="#6AACD4" transform="translate(168,275)"/>
<path d="M0 0 C2.475 0.495 2.475 0.495 5 1 C3.02 1.99 3.02 1.99 1 3 C0.67 2.01 0.34 1.02 0 0 Z " fill="#4591C6" transform="translate(154,206)"/>
<path d="M0 0 C0 0.66 0 1.32 0 2 C-0.99 2.33 -1.98 2.66 -3 3 C-3.66 2.34 -4.32 1.68 -5 1 C-3 0 -3 0 0 0 Z " fill="#599FCE" transform="translate(147,50)"/>
<path d="M0 0 C0.66 0 1.32 0 2 0 C1.34 1.32 0.68 2.64 0 4 C-0.33 3.01 -0.66 2.02 -1 1 C-0.67 0.67 -0.34 0.34 0 0 Z " fill="#3D85BA" transform="translate(246,490)"/>
<path d="M0 0 C0.66 0 1.32 0 2 0 C1.34 1.32 0.68 2.64 0 4 C-0.33 3.01 -0.66 2.02 -1 1 C-0.67 0.67 -0.34 0.34 0 0 Z " fill="#0B6EBC" transform="translate(213,387)"/>
<path d="M0 0 C0.66 0 1.32 0 2 0 C2.33 0.99 2.66 1.98 3 3 C2.01 3 1.02 3 0 3 C0 2.01 0 1.02 0 0 Z " fill="#126AAE" transform="translate(225,317)"/>
<path d="M0 0 C0.66 0.33 1.32 0.66 2 1 C1.67 1.99 1.34 2.98 1 4 C0.34 4 -0.32 4 -1 4 C-0.67 2.68 -0.34 1.36 0 0 Z " fill="#69A8D6" transform="translate(275,269)"/>
<path d="M0 0 C1.32 0.33 2.64 0.66 4 1 C4 1.66 4 2.32 4 3 C2.68 2.34 1.36 1.68 0 1 C0 0.67 0 0.34 0 0 Z " fill="#4E93C6" transform="translate(181,140)"/>
<path d="M0 0 C0.99 0.66 1.98 1.32 3 2 C1.68 2.33 0.36 2.66 -1 3 C-1.33 2.34 -1.66 1.68 -2 1 C-1.34 0.67 -0.68 0.34 0 0 Z " fill="#63A1D0" transform="translate(165,137)"/>
<path d="M0 0 C0.99 0.33 1.98 0.66 3 1 C3 1.66 3 2.32 3 3 C2.01 2.67 1.02 2.34 0 2 C0 1.34 0 0.68 0 0 Z " fill="#458DC4" transform="translate(223,490)"/>
<path d="M0 0 C0.66 0.99 1.32 1.98 2 3 C1.01 3.33 0.02 3.66 -1 4 C-0.67 2.68 -0.34 1.36 0 0 Z " fill="#599ED2" transform="translate(249,417)"/>
<path d="M0 0 C1.98 0.99 1.98 0.99 4 2 C3.01 2.33 2.02 2.66 1 3 C0.67 2.01 0.34 1.02 0 0 Z " fill="#4C95CB" transform="translate(232,319)"/>
<path d="M0 0 C0.66 0.66 1.32 1.32 2 2 C1.01 2.33 0.02 2.66 -1 3 C-0.67 2.01 -0.34 1.02 0 0 Z " fill="#6BA6D2" transform="translate(281,288)"/>
<path d="M0 0 C0.66 0.99 1.32 1.98 2 3 C1.01 3.33 0.02 3.66 -1 4 C-0.67 2.68 -0.34 1.36 0 0 Z " fill="#6CA5CF" transform="translate(270,75)"/>
<path d="M0 0 C0.66 0 1.32 0 2 0 C1.67 0.99 1.34 1.98 1 3 C0.34 3 -0.32 3 -1 3 C-0.67 2.01 -0.34 1.02 0 0 Z " fill="#5198C7" transform="translate(213,22)"/>
<path d="M0 0 C0.66 0.66 1.32 1.32 2 2 C1.01 2.33 0.02 2.66 -1 3 C-0.67 2.01 -0.34 1.02 0 0 Z " fill="#5297CA" transform="translate(269,296)"/>
<path d="M0 0 C0.99 0.33 1.98 0.66 3 1 C2.34 1.66 1.68 2.32 1 3 C0.67 2.01 0.34 1.02 0 0 Z " fill="#1268AA" transform="translate(224,295)"/>
<path d="M0 0 C0.66 0.66 1.32 1.32 2 2 C1.01 2 0.02 2 -1 2 C-0.67 1.34 -0.34 0.68 0 0 Z " fill="#4D94C9" transform="translate(250,376)"/>
</svg>